<?xml version="1.0" encoding="UTF-8" standalone="no"?>
<!-- Created with Inkscape (http://www.inkscape.org/) -->

<svg
   width="179.03403mm"
   height="30.465431mm"
   viewBox="0 0 179.03403 30.465432"
   version="1.1"
   id="svg5"
   inkscape:version="1.1.1 (c3084ef, 2021-09-22)"
   sodipodi:docname="hero.svg"
   xmlns:inkscape="http://www.inkscape.org/namespaces/inkscape"
   xmlns:sodipodi="http://sodipodi.sourceforge.net/DTD/sodipodi-0.dtd"
   xmlns="http://www.w3.org/2000/svg"
   xmlns:svg="http://www.w3.org/2000/svg">
  <sodipodi:namedview
     id="namedview7"
     pagecolor="#505050"
     bordercolor="#eeeeee"
     borderopacity="1"
     inkscape:pageshadow="0"
     inkscape:pageopacity="0"
     inkscape:pagecheckerboard="0"
     inkscape:document-units="mm"
     showgrid="false"
     fit-margin-top="5"
     fit-margin-left="5"
     fit-margin-right="5"
     fit-margin-bottom="5"
     inkscape:zoom="0.9518572"
     inkscape:cx="254.23982"
     inkscape:cy="102.95662"
     inkscape:window-width="1061"
     inkscape:window-height="940"
     inkscape:window-x="0"
     inkscape:window-y="25"
     inkscape:window-maximized="0"
     inkscape:current-layer="layer1" />
  <defs
     id="defs2">
    <rect
       x="21.857128"
       y="17.173458"
       width="643.22406"
       height="113.96931"
       id="rect1639" />
    <rect
       x="21.857128"
       y="17.173458"
       width="643.22406"
       height="113.96931"
       id="rect5523" />
    <rect
       x="21.857128"
       y="17.173458"
       width="643.22406"
       height="113.96931"
       id="rect5545" />
    <rect
       x="21.857128"
       y="17.173458"
       width="643.22406"
       height="113.96931"
       id="rect5567" />
    <rect
       x="21.857128"
       y="17.173458"
       width="643.22406"
       height="113.96931"
       id="rect5589" />
    <rect
       x="21.857128"
       y="17.173458"
       width="643.22406"
       height="113.96931"
       id="rect5951" />
  </defs>
  <g
     inkscape:label="Layer 1"
     inkscape:groupmode="layer"
     id="layer1"
     transform="translate(-18.899143,-43.968922)">
    <g
       aria-label="Pete's Donuts"
       transform="matrix(0.26458333,0,0,0.26458333,15.696801,36.970097)"
       id="text5565"
       style="font-size:96px;line-height:1.25;font-family:'Permanent Marker';-inkscape-font-specification:'Permanent Marker';text-align:center;text-anchor:middle;white-space:pre;shape-inside:url(#rect5567);fill:#c83771">
      <path
         d="m 31.844727,90.16239 q 0.09375,-0.375 0.375,-0.28125 0.375,0 0.65625,-0.09375 -0.75,-0.75 -0.9375,-1.96875 -0.1875,-1.3125 -0.9375,-2.15625 0.1875,-0.46875 0.28125,-0.9375 0.1875,-0.46875 0.84375,-0.375 -0.28125,-2.0625 0.09375,-3.84375 0.375,-1.78125 1.125,-3.375 0.84375,-1.59375 1.875,-3.09375 1.125,-1.59375 2.15625,-3.1875 0.84375,-0.1875 1.03125,0.1875 0.1875,0.28125 0.65625,-0.1875 1.5,-1.03125 2.0625,-2.25 0.5625,-1.3125 0.5625,-2.8125 0.84375,-2.4375 1.875,-4.78125 1.125,-2.4375 2.53125,-4.5 1.40625,-2.0625 3,-3.5625 1.59375,-1.59375 3.46875,-2.4375 1.3125,-1.125 3.28125,-2.0625 2.0625,-0.9375 4.3125,-1.40625 2.34375,-0.5625 4.78125,-0.5625 2.4375,-0.09375 4.5,0.46875 0.46875,0.1875 0.5625,-0.1875 0.09375,-0.46875 0.46875,-0.46875 4.6875,0.5625 8.34375,1.875 3.75,1.3125 6.375,3.65625 1.78125,2.8125 3.375,6.09375 1.59375,3.1875 2.4375,6.75 0.9375,3.46875 0.84375,7.21875 -0.09375,3.75 -1.59375,7.5 -3.28125,4.125 -7.96875,6.65625 -4.6875,2.4375 -10.125,4.125 -5.34375,1.59375 -11.15625,2.625 -5.71875,1.03125 -11.15625,2.25 0.09375,2.53125 0,5.4375 -0.09375,2.8125 -0.65625,5.71875 -0.46875,2.8125 -1.5,5.53125 -0.9375,2.71875 -2.625,5.0625 -1.875,-0.0937 -3.9375,0.375 -1.96875,0.46875 -3.5625,0.9375 -0.75,-0.46875 -1.5,-0.9375 -0.65625,-0.375 -1.6875,-0.46875 0.28125,-1.125 -0.5625,-2.34375 -0.75,-1.21875 -1.59375,-2.34375 -0.75,-1.21875 -1.03125,-2.34375 -0.1875,-1.21875 1.125,-2.15625 -0.75,-0.65625 -0.75,-2.0625 0.375,0.375 0.9375,0.375 -0.1875,-1.6875 0.375,-4.03125 0.65625,-2.34375 1.03125,-4.59375 0.46875,-2.34375 0.1875,-4.21875 -0.28125,-1.96875 -2.25,-2.8125 z m 24.375,-21.9375 q -0.375,1.03125 -0.65625,1.875 -0.1875,0.75 -0.46875,1.40625 -0.28125,0.65625 -0.65625,1.3125 -0.28125,0.65625 -0.65625,1.5 0.1875,0.5625 0.75,0.84375 0.5625,0.28125 0.75,0.84375 1.3125,-0.65625 2.625,-0.9375 1.3125,-0.375 2.625,-0.5625 1.3125,-0.1875 2.625,-0.46875 1.3125,-0.28125 2.71875,-0.9375 1.40625,-0.65625 2.90625,-1.03125 1.59375,-0.46875 3.09375,-0.9375 1.5,-0.46875 2.90625,-1.03125 1.40625,-0.65625 2.4375,-1.6875 -1.3125,-1.21875 -3.9375,-2.15625 -2.625,-0.9375 -5.71875,-1.125 -3,-0.28125 -6.09375,0.375 -3,0.65625 -5.25,2.71875 z"
         style="font-size:96px;line-height:1.25;font-family:'Permanent Marker';-inkscape-font-specification:'Permanent Marker';text-align:center;text-anchor:middle;white-space:pre;shape-inside:url(#rect5567);fill:#c83771"
         id="path6087" />
      <path
         d="m 141.43848,63.81864 q 0.0937,0.65625 0,1.03125 0,0.28125 -0.0937,0.5625 0,0.28125 0,0.65625 0,0.28125 0.1875,0.9375 -1.96875,3.1875 -4.59375,4.40625 -2.53125,1.125 -5.53125,1.6875 -3,0.46875 -6.1875,1.03125 -3.09375,0.5625 -6.1875,2.4375 -1.21875,-0.46875 -2.25,0 -0.9375,0.46875 -2.8125,0.28125 -0.5625,0.5625 -1.40625,0.84375 -0.84375,0.1875 -1.6875,0.46875 0.375,0.84375 0.28125,1.78125 0,0.84375 0.28125,1.40625 3.28125,0.28125 7.21875,-0.09375 4.03125,-0.375 7.875,-0.46875 0.0937,0.46875 -0.0937,0.65625 -0.1875,0.09375 -0.0937,0.46875 0.65625,0.46875 1.3125,1.21875 0.65625,0.65625 1.3125,1.3125 0.65625,0.65625 1.3125,1.125 0.75,0.375 1.6875,0.28125 0.375,0.75 0.46875,1.6875 0.1875,0.84375 -0.1875,1.78125 -1.5,1.03125 -3,2.15625 -1.5,1.03125 -3.1875,1.875 -1.59375,0.84375 -3.46875,1.40625 -1.78125,0.46875 -4.03125,0.375 -0.46875,0 -0.75,0 -0.1875,0 -0.5625,-0.28125 -0.75,0.46875 -2.15625,0.28125 -1.3125,-0.1875 -2.0625,0.28125 -1.03125,-0.46875 -2.53125,-0.375 -1.40625,0 -2.53125,-0.375 -1.5,1.96875 -2.71875,4.21875 -1.21875,2.25 -2.15625,4.78125 3.1875,0.46875 5.25,0.375 2.15625,-0.0937 4.03125,-0.28125 1.875,-0.28125 3.84375,-0.46875 1.96875,-0.28125 4.96875,-0.1875 1.875,-1.03125 4.40625,-1.3125 2.625,-0.375 4.78125,-1.125 0.75,0.28125 1.3125,1.03125 0.5625,0.65625 1.03125,1.3125 0.5625,0.5625 1.125,1.03125 0.5625,0.46875 1.40625,0.375 0.375,0.375 0.46875,0.9375 0.1875,0.46875 0.28125,0.9375 0.0937,0.46875 0.28125,0.84375 0.28125,0.28125 0.84375,0.1875 -1.40625,3.09375 -3.28125,4.78125 -1.78125,1.59375 -4.125,2.4375 -2.34375,0.84375 -5.25,1.3125 -2.8125,0.46875 -6.28125,1.125 -0.84375,0.1875 -1.40625,-0.0937 -0.5625,-0.1875 -1.3125,-0.1875 -2.15625,0.46875 -5.15625,0.84375 -3,0.375 -6.09375,0.28125 -3.09375,-0.0937 -5.906253,-0.84375 -2.8125,-0.65625 -4.59375,-2.4375 -0.75,-0.65625 -1.03125,-1.5 -0.1875,-0.9375 -1.21875,-1.40625 -0.09375,-1.21875 -0.375,-2.71875 -0.28125,-1.5 -0.5625,-3.09375 -0.28125,-1.6875 -0.46875,-3.28125 -0.09375,-1.59375 0.1875,-2.90625 0.28125,-1.40625 1.125,-2.53125 0.9375,-1.125 0.65625,-2.4375 0.46875,-0.09375 0.5625,-0.46875 0.09375,-0.46875 0.75,-0.375 0.5625,-1.6875 1.21875,-3.1875 0.65625,-1.5 1.3125,-2.90625 0.75,-1.40625 1.40625,-2.8125 0.75,-1.5 1.40625,-3.28125 -1.3125,-1.21875 -1.96875,-2.625 -0.5625,-1.5 -0.84375,-2.90625 -0.28125,-1.5 -0.46875,-3 -0.1875,-1.59375 -0.65625,-3.1875 0.9375,-1.40625 2.25,-2.25 1.40625,-0.9375 3.000003,-1.5 1.59375,-0.5625 3.46875,-0.9375 1.875,-0.375 3.9375,-0.84375 3.75,-1.21875 6.65625,-1.875 3,-0.65625 5.8125,-1.03125 2.90625,-0.46875 6,-0.84375 3.09375,-0.375 7.03125,-1.125 0.84375,0.84375 1.59375,0.84375 0.375,-0.84375 0.84375,-0.46875 0.5625,0.28125 0.46875,-0.5625 0.9375,1.59375 2.34375,2.71875 1.5,1.03125 3.28125,1.78125 z"
         style="font-size:96px;line-height:1.25;font-family:'Permanent Marker';-inkscape-font-specification:'Permanent Marker';text-align:center;text-anchor:middle;white-space:pre;shape-inside:url(#rect5567);fill:#c83771"
         id="path6089" />
      <path
         d="m 192.53223,71.50614 q -2.34375,0 -5.0625,0.375 -2.71875,0.28125 -5.34375,0.65625 -1.875,0.28125 -3.65625,0.46875 -1.6875,0.1875 -3.09375,0.28125 -0.65625,2.0625 -1.3125,3.65625 -0.65625,1.59375 -1.40625,3.09375 -0.75,1.59375 -1.40625,3.28125 -0.5625,1.59375 -1.125,3.46875 -0.9375,1.5 -1.59375,2.8125 -0.5625,1.21875 -0.9375,2.8125 -1.125,1.40625 -1.6875,3 -0.5625,1.5 -0.84375,2.625 l -0.375,1.125 q -0.5625,0.5625 -0.65625,0.9375 -0.0937,0.28125 -0.46875,0.5625 -0.0937,1.03125 -0.65625,2.0625 -0.1875,0.46875 -0.28125,0.9375 -0.0937,0.375 -0.0937,0.5625 0,0.9375 -0.46875,1.21875 0.0937,0.46875 0,1.03125 -0.0937,0.46875 -0.1875,0.9375 -0.28125,1.125 -0.1875,1.78125 0.28125,0.375 0.46875,0.65625 0.28125,0.28125 0.375,0.75 0.5625,0.375 0.84375,0.46875 0.375,0.28125 1.125,0.65625 l 0.84375,0.9375 q 0.46875,2.71875 -0.84375,4.3125 -1.40625,1.78125 -4.78125,1.78125 h -1.125 q -0.46875,-0.46875 -0.5625,-0.75 -0.75,-0.28125 -1.21875,-0.46875 -0.46875,-0.1875 -0.84375,-0.75 -1.21875,-0.5625 -1.96875,-0.9375 l -0.84375,-0.46875 q 0,-1.03125 0,-1.125 -0.65625,-0.84375 -1.03125,-1.875 -0.28125,-1.03125 -0.46875,-2.0625 -0.1875,-0.84375 -0.46875,-1.59375 -0.1875,-0.75 -0.5625,-1.3125 -0.1875,-5.4375 1.03125,-9.1875 1.21875,-3.75 2.53125,-7.21875 0.75,-1.875 1.5,-3.75 0.75,-1.96875 1.3125,-4.03125 l 0.84375,-0.9375 q 0.65625,-1.5 1.03125,-2.4375 0.46875,-1.03125 0.9375,-2.0625 0.28125,-0.65625 0.46875,-1.21875 0.28125,-0.65625 0.46875,-1.125 -0.5625,0 -1.03125,0.09375 -0.46875,0 -0.9375,0.09375 -0.5625,0.09375 -1.03125,0.1875 -0.46875,0 -0.9375,0 -0.65625,0 -0.9375,-0.09375 -1.03125,0.46875 -2.25,0.46875 h -0.9375 q -0.28125,0 -0.5625,0 -0.1875,-0.09375 -0.375,-0.09375 -0.9375,0 -1.5,0.28125 -1.125,0 -2.15625,0 h -0.9375 q -0.1875,0 -0.46875,0.09375 -0.28125,0 -0.46875,0 -0.65625,0 -1.40625,-0.09375 -0.75,-0.1875 -1.59375,-0.65625 -1.125,-1.5 -1.5,-1.59375 l -0.84375,-1.125 q -0.0937,-0.5625 -0.28125,-1.03125 -0.1875,-0.5625 -0.375,-1.21875 -0.375,-0.9375 -0.75,-1.96875 -0.28125,-1.125 -0.28125,-2.625 0.0937,-0.75 0.375,-1.125 0.28125,-0.375 0.46875,-0.65625 l 0.28125,-1.40625 1.21875,0.09375 h 2.625 q 3,0 6.09375,-0.1875 3.09375,-0.28125 6.375,-0.5625 1.875,-0.1875 3.75,-0.375 1.96875,-0.1875 4.03125,-0.375 0.375,-0.84375 0.75,-1.59375 l 0.9375,-0.46875 q 1.6875,-0.09375 2.34375,0.46875 0.75,0.46875 1.21875,0.9375 2.0625,-0.1875 4.125,-0.375 2.15625,-0.28125 4.3125,-0.65625 3.1875,-0.46875 6.375,-0.84375 3.28125,-0.375 6.28125,-0.375 1.3125,0 2.53125,0.09375 1.21875,0.09375 2.25,0.28125 l 0.9375,0.65625 q 0.28125,0.5625 0.75,1.03125 0.5625,0.46875 1.125,0.9375 1.125,1.03125 2.25,2.4375 1.125,1.40625 0.84375,4.125 -0.75,1.125 -1.125,1.3125 l -0.84375,1.125 -0.9375,-0.09375 q -0.5625,0 -1.03125,0.1875 -0.46875,0.09375 -0.9375,0.28125 -0.375,0.1875 -0.75,0.375 -0.375,0.09375 -0.84375,0.1875 -0.84375,0 -1.40625,0 -0.46875,-0.09375 -1.03125,-0.09375 z"
         style="font-size:96px;line-height:1.25;font-family:'Permanent Marker';-inkscape-font-specification:'Permanent Marker';text-align:center;text-anchor:middle;white-space:pre;shape-inside:url(#rect5567);fill:#c83771"
         id="path6091" />
      <path
         d="m 237.62598,63.81864 q 0.0937,0.65625 0,1.03125 0,0.28125 -0.0937,0.5625 0,0.28125 0,0.65625 0,0.28125 0.1875,0.9375 -1.96875,3.1875 -4.59375,4.40625 -2.53125,1.125 -5.53125,1.6875 -3,0.46875 -6.1875,1.03125 -3.09375,0.5625 -6.1875,2.4375 -1.21875,-0.46875 -2.25,0 -0.9375,0.46875 -2.8125,0.28125 -0.5625,0.5625 -1.40625,0.84375 -0.84375,0.1875 -1.6875,0.46875 0.375,0.84375 0.28125,1.78125 0,0.84375 0.28125,1.40625 3.28125,0.28125 7.21875,-0.09375 4.03125,-0.375 7.875,-0.46875 0.0937,0.46875 -0.0937,0.65625 -0.1875,0.09375 -0.0937,0.46875 0.65625,0.46875 1.3125,1.21875 0.65625,0.65625 1.3125,1.3125 0.65625,0.65625 1.3125,1.125 0.75,0.375 1.6875,0.28125 0.375,0.75 0.46875,1.6875 0.1875,0.84375 -0.1875,1.78125 -1.5,1.03125 -3,2.15625 -1.5,1.03125 -3.1875,1.875 -1.59375,0.84375 -3.46875,1.40625 -1.78125,0.46875 -4.03125,0.375 -0.46875,0 -0.75,0 -0.1875,0 -0.5625,-0.28125 -0.75,0.46875 -2.15625,0.28125 -1.3125,-0.1875 -2.0625,0.28125 -1.03125,-0.46875 -2.53125,-0.375 -1.40625,0 -2.53125,-0.375 -1.5,1.96875 -2.71875,4.21875 -1.21875,2.25 -2.15625,4.78125 3.1875,0.46875 5.25,0.375 2.15625,-0.0937 4.03125,-0.28125 1.875,-0.28125 3.84375,-0.46875 1.96875,-0.28125 4.96875,-0.1875 1.875,-1.03125 4.40625,-1.3125 2.625,-0.375 4.78125,-1.125 0.75,0.28125 1.3125,1.03125 0.5625,0.65625 1.03125,1.3125 0.5625,0.5625 1.125,1.03125 0.5625,0.46875 1.40625,0.375 0.375,0.375 0.46875,0.9375 0.1875,0.46875 0.28125,0.9375 0.0937,0.46875 0.28125,0.84375 0.28125,0.28125 0.84375,0.1875 -1.40625,3.09375 -3.28125,4.78125 -1.78125,1.59375 -4.125,2.4375 -2.34375,0.84375 -5.25,1.3125 -2.8125,0.46875 -6.28125,1.125 -0.84375,0.1875 -1.40625,-0.0937 -0.5625,-0.1875 -1.3125,-0.1875 -2.15625,0.46875 -5.15625,0.84375 -3,0.375 -6.09375,0.28125 -3.09375,-0.0937 -5.90625,-0.84375 -2.8125,-0.65625 -4.59375,-2.4375 -0.75,-0.65625 -1.03125,-1.5 -0.1875,-0.9375 -1.21875,-1.40625 -0.0937,-1.21875 -0.375,-2.71875 -0.28125,-1.5 -0.5625,-3.09375 -0.28125,-1.6875 -0.46875,-3.28125 -0.0937,-1.59375 0.1875,-2.90625 0.28125,-1.40625 1.125,-2.53125 0.9375,-1.125 0.65625,-2.4375 0.46875,-0.09375 0.5625,-0.46875 0.0937,-0.46875 0.75,-0.375 0.5625,-1.6875 1.21875,-3.1875 0.65625,-1.5 1.3125,-2.90625 0.75,-1.40625 1.40625,-2.8125 0.75,-1.5 1.40625,-3.28125 -1.3125,-1.21875 -1.96875,-2.625 -0.5625,-1.5 -0.84375,-2.90625 -0.28125,-1.5 -0.46875,-3 -0.1875,-1.59375 -0.65625,-3.1875 0.9375,-1.40625 2.25,-2.25 1.40625,-0.9375 3,-1.5 1.59375,-0.5625 3.46875,-0.9375 1.875,-0.375 3.9375,-0.84375 3.75,-1.21875 6.65625,-1.875 3,-0.65625 5.8125,-1.03125 2.90625,-0.46875 6,-0.84375 3.09375,-0.375 7.03125,-1.125 0.84375,0.84375 1.59375,0.84375 0.375,-0.84375 0.84375,-0.46875 0.5625,0.28125 0.46875,-0.5625 0.9375,1.59375 2.34375,2.71875 1.5,1.03125 3.28125,1.78125 z"
         style="font-size:96px;line-height:1.25;font-family:'Permanent Marker';-inkscape-font-specification:'Permanent Marker';text-align:center;text-anchor:middle;white-space:pre;shape-inside:url(#rect5567);fill:#c83771"
         id="path6093" />
      <path
         d="m 259.18848,47.31864 q 1.125,0.9375 2.15625,1.6875 1.03125,0.75 1.875,1.59375 0.84375,0.84375 1.21875,1.96875 0.46875,1.03125 0.28125,2.625 -0.75,0.84375 -1.78125,3.1875 -1.03125,2.25 -2.53125,6.5625 -0.75,2.15625 -1.5,5.90625 -0.65625,3.65625 -1.6875,7.6875 -0.9375,3.9375 -2.34375,7.5 -1.40625,3.46875 -3.5625,5.0625 -0.84375,-0.28125 -1.78125,-0.46875 -0.9375,-0.1875 -1.6875,-0.5625 -0.75,-0.375 -1.21875,-1.03125 -0.375,-0.75 -0.28125,-2.0625 -2.15625,-1.21875 -2.8125,-2.90625 -0.5625,-1.78125 -0.46875,-3.65625 0.0937,-1.96875 0.375,-3.84375 0.375,-1.96875 0.0937,-3.5625 0.9375,-3.84375 1.96875,-8.25 1.125,-4.5 1.96875,-8.625 0.84375,-0.84375 1.3125,-2.0625 0.5625,-1.3125 0.9375,-2.8125 0.375,-1.5 0.75,-2.90625 0.46875,-1.5 1.21875,-2.8125 0.46875,0.46875 1.59375,0.46875 1.125,-0.09375 1.40625,-0.65625 0.5625,0.9375 2.0625,1.59375 1.5,0.5625 2.4375,0.375 z"
         style="font-size:96px;line-height:1.25;font-family:'Permanent Marker';-inkscape-font-specification:'Permanent Marker';text-align:center;text-anchor:middle;white-space:pre;shape-inside:url(#rect5567);fill:#c83771"
         id="path6095" />
      <path
         d="m 262.37598,74.41239 q 0.65625,-1.96875 2.0625,-3.375 1.5,-1.40625 3.1875,-2.34375 1.78125,-1.03125 3.65625,-1.6875 1.875,-0.65625 3.5625,-1.125 3.75,-1.59375 7.96875,-3 4.3125,-1.5 8.71875,-2.625 4.5,-1.125 9.1875,-1.40625 4.6875,-0.375 9.84375,1.125 0.28125,0.9375 0.84375,1.78125 0.5625,0.84375 1.125,1.6875 0.65625,0.84375 1.125,1.6875 0.46875,0.75 0.5625,1.59375 0.9375,0.84375 1.5,1.875 0.5625,0.9375 0.1875,2.53125 -0.9375,0.75 -1.875,1.40625 -0.84375,0.5625 -1.875,1.03125 -3.46875,-0.84375 -7.03125,-0.5625 -3.5625,0.28125 -6.375,0.46875 -0.84375,-0.84375 -2.0625,-0.84375 -1.125,0 -2.4375,0.375 -1.21875,0.375 -2.53125,0.75 -1.21875,0.375 -2.34375,0.1875 -0.9375,0.75 -2.34375,1.03125 -1.3125,0.1875 -2.90625,0.375 -0.0937,0.46875 0.1875,0.65625 0.28125,0.09375 0.0937,0.5625 0.5625,0.65625 1.40625,0.9375 0.9375,0.28125 1.875,0.5625 1.03125,0.28125 1.78125,0.75 0.75,0.375 1.03125,1.3125 1.40625,0 2.4375,0.65625 1.03125,0.65625 1.6875,1.59375 0.65625,0.9375 0.9375,2.0625 0.375,1.03125 0.375,1.875 0.28125,0.75 0.65625,0.65625 0.375,-0.09375 0.84375,0.375 0.28125,1.21875 1.40625,2.53125 1.125,1.21875 1.78125,2.71875 0.1875,2.34375 0.28125,4.21875 0.0937,1.78125 -0.65625,3.65625 -1.40625,3.46875 -3.9375,6.1875 -2.4375,2.71875 -5.625,4.875 -3.09375,2.0625 -6.65625,3.5625 -3.5625,1.5 -6.9375,2.53125 -0.375,-0.0937 -0.75,0 -0.375,0.0937 -0.1875,-0.46875 -0.75,0.65625 -1.6875,0.84375 -0.84375,0.1875 -1.875,0.0937 -1.03125,0 -2.15625,-0.0937 -1.03125,-0.0937 -1.96875,0.0937 -0.65625,-0.65625 -1.21875,-1.3125 -0.46875,-0.5625 -0.75,-1.5 -0.46875,0 -0.46875,-0.46875 0.0937,-0.46875 -0.28125,-0.46875 0.5625,-0.9375 0.46875,-1.03125 0,-0.1875 -0.28125,-0.28125 -0.1875,-0.0937 -0.375,-0.1875 -0.1875,-0.1875 -0.0937,-0.46875 0.375,-0.75 0.28125,-1.6875 -0.0937,-1.03125 -0.1875,-2.0625 -0.0937,-1.03125 0.0937,-1.96875 0.28125,-0.9375 1.40625,-1.5 3.1875,0.375 6,-0.1875 2.90625,-0.65625 5.4375,-1.78125 2.53125,-1.125 4.78125,-2.4375 2.34375,-1.3125 4.59375,-2.34375 0.28125,-0.84375 0.75,-1.40625 0.5625,-0.5625 1.125,-1.03125 0.5625,-0.46875 1.03125,-1.03125 0.46875,-0.5625 0.65625,-1.40625 0.0937,-0.65625 -0.375,-0.75 -0.375,-0.1875 -0.375,-0.75 l -1.03125,-0.28125 q -1.78125,-1.03125 -4.03125,-1.6875 -2.25,-0.75 -3.84375,-1.59375 -1.03125,0.5625 -1.96875,0.28125 -0.84375,-0.28125 -2.25,-0.5625 -3.1875,-0.1875 -6.1875,-0.65625 -2.90625,-0.46875 -5.625,-1.6875 -0.1875,-0.46875 -0.46875,-0.84375 -0.28125,-0.375 -1.03125,-0.1875 -0.5625,-0.75 -1.125,-1.40625 -0.5625,-0.75 -1.03125,-1.59375 0.1875,-1.125 0.28125,-1.875 0.0937,-0.84375 -0.5625,-1.59375 0.375,-1.21875 0.5625,-1.96875 0.1875,-0.75 0,-1.96875 z"
         style="font-size:96px;line-height:1.25;font-family:'Permanent Marker';-inkscape-font-specification:'Permanent Marker';text-align:center;text-anchor:middle;white-space:pre;shape-inside:url(#rect5567);fill:#c83771"
         id="path6097" />
      <path
         d="m 350.31348,117.63114 q -2.71875,-0.65625 -4.21875,-2.15625 -1.40625,-1.59375 -2.15625,-3.65625 -0.65625,-2.15625 -0.9375,-4.6875 -0.1875,-2.53125 -0.46875,-5.25 0.375,-1.21875 0.9375,-2.0625 0.65625,-0.84375 0.5625,-2.34375 1.03125,-3 1.875,-5.8125 0.84375,-2.8125 1.125,-5.8125 0.5625,-0.84375 1.125,-1.125 0.75,-5.34375 0.1875,-10.96875 -0.5625,-5.625 -1.875,-10.40625 0.0937,-1.03125 0.28125,-1.5 0.1875,-0.5625 0,-0.9375 -0.1875,-0.84375 0.5625,-0.84375 0.75,0 1.5,0 0,-1.6875 -0.65625,-3.28125 -0.5625,-1.6875 -1.125,-3.84375 0.75,-1.6875 1.03125,-3.28125 0.28125,-1.59375 1.03125,-2.90625 3,0.9375 5.90625,2.15625 2.90625,1.21875 5.71875,2.4375 2.8125,1.125 5.53125,2.25 2.71875,1.03125 5.34375,1.6875 4.03125,2.90625 8.25,5.8125 4.3125,2.8125 7.78125,6.28125 3.5625,3.375 5.90625,7.78125 2.34375,4.40625 2.71875,10.40625 -0.1875,0.5625 -0.28125,0.9375 -0.0937,0.375 -0.1875,0.75 -0.0937,0.375 -0.0937,0.84375 0,0.46875 0,1.3125 -3.375,5.90625 -8.53125,9.9375 -5.15625,4.03125 -11.25,7.125 -6.09375,3.09375 -12.75,5.71875 -6.5625,2.53125 -12.84375,5.4375 z m 9.1875,-53.15625 q -0.84375,0 -1.21875,0.375 1.125,4.21875 1.6875,7.96875 0.5625,3.75 0.5625,7.5 0.0937,3.75 -0.375,7.6875 -0.46875,3.9375 -1.3125,8.53125 1.21875,-0.09375 2.15625,-0.46875 0.9375,-0.375 1.875,-0.84375 1.03125,-0.46875 2.0625,-0.84375 1.125,-0.375 2.53125,-0.46875 0.375,-0.75 0.9375,-1.125 0.65625,-0.46875 1.125,-0.9375 2.34375,-0.9375 4.6875,-1.96875 2.34375,-1.03125 4.3125,-2.34375 1.96875,-1.3125 3.5625,-3 1.59375,-1.6875 2.625,-4.03125 -0.75,-1.40625 -1.875,-2.34375 -1.03125,-1.03125 -2.25,-1.96875 -1.125,-1.03125 -2.25,-2.0625 -1.03125,-1.125 -1.6875,-2.53125 -1.5,-0.1875 -2.625,-0.75 -1.125,-0.65625 -2.15625,-1.21875 -1.03125,-0.65625 -2.25,-1.21875 -1.125,-0.5625 -2.71875,-0.65625 -2.4375,-1.3125 -4.40625,-1.78125 -1.96875,-0.5625 -3,-1.5 z"
         style="font-size:96px;line-height:1.25;font-family:'Permanent Marker';-inkscape-font-specification:'Permanent Marker';text-align:center;text-anchor:middle;white-space:pre;shape-inside:url(#rect5567);fill:#c83771"
         id="path6099" />
      <path
         d="m 452.40723,88.47489 q -0.0937,1.125 0.1875,2.15625 0.28125,1.03125 0.65625,2.0625 0.46875,0.9375 0.84375,1.96875 0.375,1.03125 0.5625,2.0625 0.1875,1.3125 0,2.90625 -0.1875,1.5 -0.65625,3 -0.46875,1.40625 -1.21875,2.625 -0.75,1.125 -1.78125,1.6875 -1.3125,1.6875 -3.1875,2.625 -1.875,0.9375 -3.46875,2.25 -1.03125,0.65625 -2.34375,0.9375 -1.21875,0.28125 -2.53125,0.5625 -1.03125,0.5625 -2.4375,1.21875 -1.40625,0.5625 -2.90625,1.125 -1.5,0.46875 -3,0.75 -1.5,0.1875 -2.625,0.0937 -2.8125,1.03125 -5.53125,1.3125 -2.625,0.375 -6.1875,-0.375 -3.375,0.46875 -6.28125,-0.28125 -2.8125,-0.75 -5.0625,-2.34375 -2.15625,-1.6875 -3.84375,-3.9375 -1.59375,-2.34375 -2.625,-4.875 -0.75,-5.34375 0.375,-9.65625 1.125,-4.40625 3.1875,-8.0625 2.15625,-3.75 4.875,-6.84375 2.71875,-3.1875 5.25,-6.1875 0.5625,0.1875 0.84375,0 0.375,-0.28125 0.65625,-0.65625 0.28125,-0.46875 0.5625,-0.84375 0.375,-0.375 0.84375,-0.46875 0.65625,-1.40625 1.875,-2.0625 1.3125,-0.75 2.0625,-2.0625 0.84375,-0.1875 1.40625,-0.5625 0.5625,-0.375 1.03125,-0.84375 0.5625,-0.46875 1.125,-0.84375 0.5625,-0.46875 1.3125,-0.65625 v -1.03125 q 1.6875,-0.75 2.4375,-1.6875 0.84375,-1.03125 1.96875,-2.4375 0.84375,-0.09375 1.3125,-0.09375 0.5625,0 1.59375,-0.1875 0.75,-1.3125 1.3125,-1.96875 0.65625,-0.65625 1.875,-1.40625 1.125,0.5625 2.4375,0.75 1.40625,0.1875 2.4375,1.21875 0.0937,0.9375 0.5625,1.5 0.46875,0.46875 1.03125,0.9375 0.5625,0.375 1.03125,0.84375 0.5625,0.46875 0.75,1.3125 0.375,0.09375 0.46875,-0.09375 0.1875,-0.1875 0.5625,-0.09375 0.28125,1.3125 0.65625,1.78125 0.375,0.375 0.75,1.59375 -0.46875,0.9375 -0.75,1.96875 -0.1875,0.9375 -1.125,1.40625 -0.0937,0.65625 0.375,0.75 0.46875,0 0.5625,0.46875 0.0937,0.84375 -0.28125,1.21875 2.25,3.65625 4.03125,7.78125 1.78125,4.03125 4.03125,7.6875 z m -11.71875,8.90625 q 0.375,-1.03125 0.9375,-1.6875 0.65625,-0.65625 0.75,-1.96875 -0.46875,-0.75 -0.5625,-1.125 -0.0937,-0.46875 -0.0937,-1.40625 -2.0625,-2.90625 -3.5625,-6.1875 -1.5,-3.375 -3.375,-6.28125 -0.1875,0.375 -0.65625,0.75 -0.46875,0.375 -1.03125,-0.1875 -0.1875,0.75 -0.65625,1.125 -0.46875,0.28125 -1.03125,0.28125 -0.5625,-0.09375 -1.21875,-0.28125 -0.5625,-0.28125 -1.03125,-0.65625 -2.71875,2.15625 -5.4375,4.21875 -2.71875,2.0625 -4.875,4.78125 -0.375,0.1875 -0.46875,0.1875 -0.0937,-0.09375 -0.5625,0.09375 -0.75,1.78125 -1.875,3.28125 -1.03125,1.40625 -2.0625,2.90625 -1.03125,1.5 -1.78125,3.1875 -0.75,1.6875 -0.84375,3.9375 1.59375,1.3125 3.75,1.59375 2.15625,0.28125 4.40625,0.0937 2.34375,-0.1875 4.5,-0.5625 2.25,-0.46875 4.125,-0.46875 3.9375,-0.9375 6.75,-2.4375 2.8125,-1.59375 5.90625,-3.1875 z"
         style="font-size:96px;line-height:1.25;font-family:'Permanent Marker';-inkscape-font-specification:'Permanent Marker';text-align:center;text-anchor:middle;white-space:pre;shape-inside:url(#rect5567);fill:#c83771"
         id="path6101" />
      <path
         d="m 477.34473,99.53739 q -0.84375,0.1875 -1.21875,1.03125 -0.375,0.75 -0.75,1.59375 -0.28125,0.84375 -0.65625,1.59375 -0.28125,0.65625 -0.9375,0.65625 -0.0937,0.75 -0.5625,1.3125 -0.375,0.5625 -0.75,1.21875 -0.375,0.5625 -0.5625,1.3125 -0.1875,0.65625 0.1875,1.59375 -0.75,0.5625 -0.9375,1.59375 -0.1875,1.03125 -0.46875,1.96875 -0.1875,0.9375 -0.75,1.59375 -0.5625,0.65625 -2.0625,0.5625 -0.28125,0.375 -0.0937,0.46875 0.1875,0.0937 0.28125,0.65625 -1.03125,-0.1875 -1.59375,0.0937 -0.46875,0.375 -1.21875,0.46875 -1.78125,-0.5625 -3,-1.96875 -1.125,-1.40625 -2.0625,-3.09375 -0.84375,-1.78125 -1.59375,-3.5625 -0.65625,-1.78125 -1.3125,-3.09375 0.28125,-1.03125 0.0937,-1.96875 -0.1875,-1.03125 -0.65625,-1.6875 4.59375,-9.75 10.03125,-20.8125 5.4375,-11.0625 10.3125,-21.84375 2.15625,0.84375 4.21875,1.96875 2.15625,1.03125 3.84375,2.4375 1.78125,1.40625 3,3.28125 1.21875,1.78125 1.59375,4.03125 -0.1875,0.5625 -0.46875,0.46875 -0.1875,-0.1875 -0.375,0.09375 0.375,0.46875 0.375,0.65625 0.0937,0.1875 0,0.375 0,0.1875 0,0.5625 0,0.28125 0.28125,0.84375 -0.375,-0.09375 -0.5625,0.09375 -0.0937,0.1875 -0.5625,0 0.375,1.03125 0.1875,1.6875 -0.0937,0.65625 -0.375,1.21875 -0.28125,0.46875 -0.46875,1.125 -0.1875,0.5625 0.0937,1.5 -0.28125,0 -0.46875,0.1875 -0.0937,0.09375 -0.1875,0.28125 -0.0937,0.09375 -0.28125,0.28125 -0.0937,0.09375 -0.375,0 0.28125,2.0625 0.1875,4.125 -0.0937,2.0625 -0.1875,4.21875 0,2.0625 0.0937,4.40625 0.0937,2.25 0.65625,4.6875 3.375,-1.96875 5.34375,-5.0625 2.0625,-3.09375 3.28125,-6.9375 1.3125,-3.84375 1.96875,-8.25 0.65625,-4.40625 1.40625,-9 0.84375,-0.84375 1.3125,-2.0625 0.46875,-1.21875 0.84375,-2.53125 0.375,-1.40625 0.75,-2.71875 0.375,-1.40625 0.9375,-2.53125 1.40625,0.1875 2.34375,0.9375 1.03125,0.65625 1.875,1.5 0.84375,0.75 1.78125,1.5 0.9375,0.65625 2.34375,0.84375 1.125,1.59375 2.0625,3.09375 0.9375,1.5 1.21875,3.1875 -0.46875,0.75 -0.75,1.6875 -0.1875,0.9375 -0.46875,1.875 -0.28125,0.9375 -0.75,1.78125 -0.46875,0.75 -1.3125,1.3125 -0.28125,2.4375 -0.75,4.5 -0.375,1.96875 -0.84375,3.9375 -0.375,1.96875 -0.65625,4.125 -0.28125,2.0625 -0.1875,4.59375 -0.75,2.15625 -1.59375,4.59375 -0.84375,2.4375 -1.3125,4.40625 -1.5,1.21875 -2.34375,2.90625 -0.84375,1.6875 -1.78125,3.375 -0.375,0.375 -0.46875,0.1875 -0.0937,-0.1875 -0.65625,-0.28125 0.0937,0.375 0,0.5625 -0.0937,0.1875 -0.28125,0.375 -0.0937,0.0937 -0.1875,0.375 0,0.28125 0.1875,0.75 -1.3125,0.5625 -2.34375,1.59375 -1.03125,1.03125 -2.25,1.875 -1.125,0.84375 -2.8125,1.125 -1.59375,0.28125 -4.21875,-0.65625 -3.84375,-2.8125 -6.84375,-6.46875 -2.90625,-3.65625 -4.78125,-8.71875 z"
         style="font-size:96px;line-height:1.25;font-family:'Permanent Marker';-inkscape-font-specification:'Permanent Marker';text-align:center;text-anchor:middle;white-space:pre;shape-inside:url(#rect5567);fill:#c83771"
         id="path6103" />
      <path
         d="m 567.62598,63.25614 q 0.1875,2.0625 0.65625,3.5625 0.46875,1.5 1.03125,2.90625 0.46875,1.3125 0.84375,2.625 0.46875,1.21875 0.65625,3 -0.75,2.4375 -1.125,4.5 -0.28125,2.0625 -0.65625,4.3125 -1.5,3.28125 -2.90625,5.8125 -1.40625,2.53125 -2.25,4.40625 -0.46875,0.46875 -0.84375,1.125 -0.28125,0.5625 -0.65625,1.21875 -0.1875,0.28125 -0.46875,0.84375 -0.28125,0.5625 -0.46875,0.75 l -1.875,-0.65625 -0.375,2.34375 -1.3125,0.375 -0.9375,1.125 q -1.78125,3.09375 -3.75,5.25 -1.96875,2.0625 -4.5,3.75 -2.4375,1.59375 -5.625,3 -3.09375,1.40625 -7.03125,3.09375 -1.59375,-0.1875 -2.8125,-0.1875 -1.125,-0.0937 -2.15625,-0.1875 -1.78125,0 -4.40625,-0.28125 -0.28125,-0.75 -0.84375,-1.03125 -0.5625,-0.28125 -1.03125,-0.28125 -1.59375,-0.75 -2.4375,-2.15625 -0.75,-1.5 -1.5,-3.1875 -0.46875,-1.03125 -0.9375,-1.875 -0.46875,-0.9375 -1.03125,-1.875 l 1.59375,-0.46875 -2.0625,-2.25 q -0.1875,-0.28125 -0.46875,-0.46875 -0.28125,-0.28125 -0.46875,-0.5625 l -0.0937,-1.5 q -0.28125,-6.46875 -0.28125,-11.8125 0.0937,-5.4375 1.5,-9.65625 v -1.03125 q 0.28125,-2.0625 0.5625,-3.375 0.28125,-1.40625 0.46875,-2.625 0.28125,-2.0625 0.84375,-3.84375 1.3125,-0.28125 1.96875,-1.03125 0.65625,-0.84375 1.125,-1.5 1.3125,-0.09375 1.78125,0.375 0.46875,0.46875 0.9375,1.5 0.46875,0.84375 1.125,1.875 0.75,1.03125 2.15625,1.59375 0.1875,0.75 0.46875,1.59375 0.375,0.75 0.75,1.6875 0.75,1.59375 1.3125,3.375 0.65625,1.6875 0.75,3.28125 -0.9375,1.78125 -1.5,4.125 -0.46875,2.34375 -0.65625,4.78125 -0.0937,2.34375 0.0937,4.59375 0.28125,2.15625 0.84375,3.65625 l 0.5625,1.21875 1.59375,-0.1875 q 2.8125,-0.75 5.0625,-1.59375 2.34375,-0.9375 4.3125,-2.15625 1.96875,-1.21875 3.75,-2.8125 1.78125,-1.6875 3.75,-3.84375 1.96875,-2.15625 3.375,-4.875 1.5,-2.8125 2.4375,-5.8125 1.03125,-3 1.5,-5.90625 0.5625,-3 0.75,-5.625 1.59375,-0.5625 1.59375,-2.25 l -0.1875,-1.03125 q -0.375,-0.5625 0,-1.3125 0.5625,-1.78125 2.625,-2.71875 1.5,0.9375 2.625,2.0625 1.21875,1.125 2.25,2.25 z"
         style="font-size:96px;line-height:1.25;font-family:'Permanent Marker';-inkscape-font-specification:'Permanent Marker';text-align:center;text-anchor:middle;white-space:pre;shape-inside:url(#rect5567);fill:#c83771"
         id="path6105" />
      <path
         d="m 621.90723,71.50614 q -2.34375,0 -5.0625,0.375 -2.71875,0.28125 -5.34375,0.65625 -1.875,0.28125 -3.65625,0.46875 -1.6875,0.1875 -3.09375,0.28125 -0.65625,2.0625 -1.3125,3.65625 -0.65625,1.59375 -1.40625,3.09375 -0.75,1.59375 -1.40625,3.28125 -0.5625,1.59375 -1.125,3.46875 -0.9375,1.5 -1.59375,2.8125 -0.5625,1.21875 -0.9375,2.8125 -1.125,1.40625 -1.6875,3 -0.5625,1.5 -0.84375,2.625 l -0.375,1.125 q -0.5625,0.5625 -0.65625,0.9375 -0.0937,0.28125 -0.46875,0.5625 -0.0937,1.03125 -0.65625,2.0625 -0.1875,0.46875 -0.28125,0.9375 -0.0937,0.375 -0.0937,0.5625 0,0.9375 -0.46875,1.21875 0.0937,0.46875 0,1.03125 -0.0937,0.46875 -0.1875,0.9375 -0.28125,1.125 -0.1875,1.78125 0.28125,0.375 0.46875,0.65625 0.28125,0.28125 0.375,0.75 0.5625,0.375 0.84375,0.46875 0.375,0.28125 1.125,0.65625 l 0.84375,0.9375 q 0.46875,2.71875 -0.84375,4.3125 -1.40625,1.78125 -4.78125,1.78125 h -1.125 q -0.46875,-0.46875 -0.5625,-0.75 -0.75,-0.28125 -1.21875,-0.46875 -0.46875,-0.1875 -0.84375,-0.75 -1.21875,-0.5625 -1.96875,-0.9375 l -0.84375,-0.46875 q 0,-1.03125 0,-1.125 -0.65625,-0.84375 -1.03125,-1.875 -0.28125,-1.03125 -0.46875,-2.0625 -0.1875,-0.84375 -0.46875,-1.59375 -0.1875,-0.75 -0.5625,-1.3125 -0.1875,-5.4375 1.03125,-9.1875 1.21875,-3.75 2.53125,-7.21875 0.75,-1.875 1.5,-3.75 0.75,-1.96875 1.3125,-4.03125 l 0.84375,-0.9375 q 0.65625,-1.5 1.03125,-2.4375 0.46875,-1.03125 0.9375,-2.0625 0.28125,-0.65625 0.46875,-1.21875 0.28125,-0.65625 0.46875,-1.125 -0.5625,0 -1.03125,0.09375 -0.46875,0 -0.9375,0.09375 -0.5625,0.09375 -1.03125,0.1875 -0.46875,0 -0.9375,0 -0.65625,0 -0.9375,-0.09375 -1.03125,0.46875 -2.25,0.46875 h -0.9375 q -0.28125,0 -0.5625,0 -0.1875,-0.09375 -0.375,-0.09375 -0.9375,0 -1.5,0.28125 -1.125,0 -2.15625,0 h -0.9375 q -0.1875,0 -0.46875,0.09375 -0.28125,0 -0.46875,0 -0.65625,0 -1.40625,-0.09375 -0.75,-0.1875 -1.59375,-0.65625 -1.125,-1.5 -1.5,-1.59375 l -0.84375,-1.125 q -0.0937,-0.5625 -0.28125,-1.03125 -0.1875,-0.5625 -0.375,-1.21875 -0.375,-0.9375 -0.75,-1.96875 -0.28125,-1.125 -0.28125,-2.625 0.0937,-0.75 0.375,-1.125 0.28125,-0.375 0.46875,-0.65625 l 0.28125,-1.40625 1.21875,0.09375 h 2.625 q 3,0 6.09375,-0.1875 3.09375,-0.28125 6.375,-0.5625 1.875,-0.1875 3.75,-0.375 1.96875,-0.1875 4.03125,-0.375 0.375,-0.84375 0.75,-1.59375 l 0.9375,-0.46875 q 1.6875,-0.09375 2.34375,0.46875 0.75,0.46875 1.21875,0.9375 2.0625,-0.1875 4.125,-0.375 2.15625,-0.28125 4.3125,-0.65625 3.1875,-0.46875 6.375,-0.84375 3.28125,-0.375 6.28125,-0.375 1.3125,0 2.53125,0.09375 1.21875,0.09375 2.25,0.28125 l 0.9375,0.65625 q 0.28125,0.5625 0.75,1.03125 0.5625,0.46875 1.125,0.9375 1.125,1.03125 2.25,2.4375 1.125,1.40625 0.84375,4.125 -0.75,1.125 -1.125,1.3125 l -0.84375,1.125 -0.9375,-0.09375 q -0.5625,0 -1.03125,0.1875 -0.46875,0.09375 -0.9375,0.28125 -0.375,0.1875 -0.75,0.375 -0.375,0.09375 -0.84375,0.1875 -0.84375,0 -1.40625,0 -0.46875,-0.09375 -1.03125,-0.09375 z"
         style="font-size:96px;line-height:1.25;font-family:'Permanent Marker';-inkscape-font-specification:'Permanent Marker';text-align:center;text-anchor:middle;white-space:pre;shape-inside:url(#rect5567);fill:#c83771"
         id="path6107" />
      <path
         d="m 616.18848,74.41239 q 0.65625,-1.96875 2.0625,-3.375 1.5,-1.40625 3.1875,-2.34375 1.78125,-1.03125 3.65625,-1.6875 1.875,-0.65625 3.5625,-1.125 3.75,-1.59375 7.96875,-3 4.3125,-1.5 8.71875,-2.625 4.5,-1.125 9.1875,-1.40625 4.6875,-0.375 9.84375,1.125 0.28125,0.9375 0.84375,1.78125 0.5625,0.84375 1.125,1.6875 0.65625,0.84375 1.125,1.6875 0.46875,0.75 0.5625,1.59375 0.9375,0.84375 1.5,1.875 0.5625,0.9375 0.1875,2.53125 -0.9375,0.75 -1.875,1.40625 -0.84375,0.5625 -1.875,1.03125 -3.46875,-0.84375 -7.03125,-0.5625 -3.5625,0.28125 -6.375,0.46875 -0.84375,-0.84375 -2.0625,-0.84375 -1.125,0 -2.4375,0.375 -1.21875,0.375 -2.53125,0.75 -1.21875,0.375 -2.34375,0.1875 -0.9375,0.75 -2.34375,1.03125 -1.3125,0.1875 -2.90625,0.375 -0.0937,0.46875 0.1875,0.65625 0.28125,0.09375 0.0937,0.5625 0.5625,0.65625 1.40625,0.9375 0.9375,0.28125 1.875,0.5625 1.03125,0.28125 1.78125,0.75 0.75,0.375 1.03125,1.3125 1.40625,0 2.4375,0.65625 1.03125,0.65625 1.6875,1.59375 0.65625,0.9375 0.9375,2.0625 0.375,1.03125 0.375,1.875 0.28125,0.75 0.65625,0.65625 0.375,-0.09375 0.84375,0.375 0.28125,1.21875 1.40625,2.53125 1.125,1.21875 1.78125,2.71875 0.1875,2.34375 0.28125,4.21875 0.0937,1.78125 -0.65625,3.65625 -1.40625,3.46875 -3.9375,6.1875 -2.4375,2.71875 -5.625,4.875 -3.09375,2.0625 -6.65625,3.5625 -3.5625,1.5 -6.9375,2.53125 -0.375,-0.0937 -0.75,0 -0.375,0.0937 -0.1875,-0.46875 -0.75,0.65625 -1.6875,0.84375 -0.84375,0.1875 -1.875,0.0937 -1.03125,0 -2.15625,-0.0937 -1.03125,-0.0937 -1.96875,0.0937 -0.65625,-0.65625 -1.21875,-1.3125 -0.46875,-0.5625 -0.75,-1.5 -0.46875,0 -0.46875,-0.46875 0.0937,-0.46875 -0.28125,-0.46875 0.5625,-0.9375 0.46875,-1.03125 0,-0.1875 -0.28125,-0.28125 -0.1875,-0.0937 -0.375,-0.1875 -0.1875,-0.1875 -0.0937,-0.46875 0.375,-0.75 0.28125,-1.6875 -0.0937,-1.03125 -0.1875,-2.0625 -0.0937,-1.03125 0.0937,-1.96875 0.28125,-0.9375 1.40625,-1.5 3.1875,0.375 6,-0.1875 2.90625,-0.65625 5.4375,-1.78125 2.53125,-1.125 4.78125,-2.4375 2.34375,-1.3125 4.59375,-2.34375 0.28125,-0.84375 0.75,-1.40625 0.5625,-0.5625 1.125,-1.03125 0.5625,-0.46875 1.03125,-1.03125 0.46875,-0.5625 0.65625,-1.40625 0.0937,-0.65625 -0.375,-0.75 -0.375,-0.1875 -0.375,-0.75 l -1.03125,-0.28125 q -1.78125,-1.03125 -4.03125,-1.6875 -2.25,-0.75 -3.84375,-1.59375 -1.03125,0.5625 -1.96875,0.28125 -0.84375,-0.28125 -2.25,-0.5625 -3.1875,-0.1875 -6.1875,-0.65625 -2.90625,-0.46875 -5.625,-1.6875 -0.1875,-0.46875 -0.46875,-0.84375 -0.28125,-0.375 -1.03125,-0.1875 -0.5625,-0.75 -1.125,-1.40625 -0.5625,-0.75 -1.03125,-1.59375 0.1875,-1.125 0.28125,-1.875 0.0937,-0.84375 -0.5625,-1.59375 0.375,-1.21875 0.5625,-1.96875 0.1875,-0.75 0,-1.96875 z"
         style="font-size:96px;line-height:1.25;font-family:'Permanent Marker';-inkscape-font-specification:'Permanent Marker';text-align:center;text-anchor:middle;white-space:pre;shape-inside:url(#rect5567);fill:#c83771"
         id="path6109" />
    </g>
    <g
       aria-label="Pete's Donuts"
       transform="matrix(0.26458333,0,0,0.26458333,15.696801,38.013459)"
       id="text5949"
       style="font-size:96px;line-height:1.25;font-family:'Permanent Marker';-inkscape-font-specification:'Permanent Marker';text-align:center;text-anchor:middle;white-space:pre;shape-inside:url(#rect5951);fill:#000000">
      <path
         d="m 31.844727,90.16239 q 0.09375,-0.375 0.375,-0.28125 0.375,0 0.65625,-0.09375 -0.75,-0.75 -0.9375,-1.96875 -0.1875,-1.3125 -0.9375,-2.15625 0.1875,-0.46875 0.28125,-0.9375 0.1875,-0.46875 0.84375,-0.375 -0.28125,-2.0625 0.09375,-3.84375 0.375,-1.78125 1.125,-3.375 0.84375,-1.59375 1.875,-3.09375 1.125,-1.59375 2.15625,-3.1875 0.84375,-0.1875 1.03125,0.1875 0.1875,0.28125 0.65625,-0.1875 1.5,-1.03125 2.0625,-2.25 0.5625,-1.3125 0.5625,-2.8125 0.84375,-2.4375 1.875,-4.78125 1.125,-2.4375 2.53125,-4.5 1.40625,-2.0625 3,-3.5625 1.59375,-1.59375 3.46875,-2.4375 1.3125,-1.125 3.28125,-2.0625 2.0625,-0.9375 4.3125,-1.40625 2.34375,-0.5625 4.78125,-0.5625 2.4375,-0.09375 4.5,0.46875 0.46875,0.1875 0.5625,-0.1875 0.09375,-0.46875 0.46875,-0.46875 4.6875,0.5625 8.34375,1.875 3.75,1.3125 6.375,3.65625 1.78125,2.8125 3.375,6.09375 1.59375,3.1875 2.4375,6.75 0.9375,3.46875 0.84375,7.21875 -0.09375,3.75 -1.59375,7.5 -3.28125,4.125 -7.96875,6.65625 -4.6875,2.4375 -10.125,4.125 -5.34375,1.59375 -11.15625,2.625 -5.71875,1.03125 -11.15625,2.25 0.09375,2.53125 0,5.4375 -0.09375,2.8125 -0.65625,5.71875 -0.46875,2.8125 -1.5,5.53125 -0.9375,2.71875 -2.625,5.0625 -1.875,-0.0937 -3.9375,0.375 -1.96875,0.46875 -3.5625,0.9375 -0.75,-0.46875 -1.5,-0.9375 -0.65625,-0.375 -1.6875,-0.46875 0.28125,-1.125 -0.5625,-2.34375 -0.75,-1.21875 -1.59375,-2.34375 -0.75,-1.21875 -1.03125,-2.34375 -0.1875,-1.21875 1.125,-2.15625 -0.75,-0.65625 -0.75,-2.0625 0.375,0.375 0.9375,0.375 -0.1875,-1.6875 0.375,-4.03125 0.65625,-2.34375 1.03125,-4.59375 0.46875,-2.34375 0.1875,-4.21875 -0.28125,-1.96875 -2.25,-2.8125 z m 24.375,-21.9375 q -0.375,1.03125 -0.65625,1.875 -0.1875,0.75 -0.46875,1.40625 -0.28125,0.65625 -0.65625,1.3125 -0.28125,0.65625 -0.65625,1.5 0.1875,0.5625 0.75,0.84375 0.5625,0.28125 0.75,0.84375 1.3125,-0.65625 2.625,-0.9375 1.3125,-0.375 2.625,-0.5625 1.3125,-0.1875 2.625,-0.46875 1.3125,-0.28125 2.71875,-0.9375 1.40625,-0.65625 2.90625,-1.03125 1.59375,-0.46875 3.09375,-0.9375 1.5,-0.46875 2.90625,-1.03125 1.40625,-0.65625 2.4375,-1.6875 -1.3125,-1.21875 -3.9375,-2.15625 -2.625,-0.9375 -5.71875,-1.125 -3,-0.28125 -6.09375,0.375 -3,0.65625 -5.25,2.71875 z"
         style="font-size:96px;line-height:1.25;font-family:'Permanent Marker';-inkscape-font-specification:'Permanent Marker';text-align:center;text-anchor:middle;white-space:pre;shape-inside:url(#rect5951);fill:#000000"
         id="path6112" />
      <path
         d="m 141.43848,63.81864 q 0.0937,0.65625 0,1.03125 0,0.28125 -0.0937,0.5625 0,0.28125 0,0.65625 0,0.28125 0.1875,0.9375 -1.96875,3.1875 -4.59375,4.40625 -2.53125,1.125 -5.53125,1.6875 -3,0.46875 -6.1875,1.03125 -3.09375,0.5625 -6.1875,2.4375 -1.21875,-0.46875 -2.25,0 -0.9375,0.46875 -2.8125,0.28125 -0.5625,0.5625 -1.40625,0.84375 -0.84375,0.1875 -1.6875,0.46875 0.375,0.84375 0.28125,1.78125 0,0.84375 0.28125,1.40625 3.28125,0.28125 7.21875,-0.09375 4.03125,-0.375 7.875,-0.46875 0.0937,0.46875 -0.0937,0.65625 -0.1875,0.09375 -0.0937,0.46875 0.65625,0.46875 1.3125,1.21875 0.65625,0.65625 1.3125,1.3125 0.65625,0.65625 1.3125,1.125 0.75,0.375 1.6875,0.28125 0.375,0.75 0.46875,1.6875 0.1875,0.84375 -0.1875,1.78125 -1.5,1.03125 -3,2.15625 -1.5,1.03125 -3.1875,1.875 -1.59375,0.84375 -3.46875,1.40625 -1.78125,0.46875 -4.03125,0.375 -0.46875,0 -0.75,0 -0.1875,0 -0.5625,-0.28125 -0.75,0.46875 -2.15625,0.28125 -1.3125,-0.1875 -2.0625,0.28125 -1.03125,-0.46875 -2.53125,-0.375 -1.40625,0 -2.53125,-0.375 -1.5,1.96875 -2.71875,4.21875 -1.21875,2.25 -2.15625,4.78125 3.1875,0.46875 5.25,0.375 2.15625,-0.0937 4.03125,-0.28125 1.875,-0.28125 3.84375,-0.46875 1.96875,-0.28125 4.96875,-0.1875 1.875,-1.03125 4.40625,-1.3125 2.625,-0.375 4.78125,-1.125 0.75,0.28125 1.3125,1.03125 0.5625,0.65625 1.03125,1.3125 0.5625,0.5625 1.125,1.03125 0.5625,0.46875 1.40625,0.375 0.375,0.375 0.46875,0.9375 0.1875,0.46875 0.28125,0.9375 0.0937,0.46875 0.28125,0.84375 0.28125,0.28125 0.84375,0.1875 -1.40625,3.09375 -3.28125,4.78125 -1.78125,1.59375 -4.125,2.4375 -2.34375,0.84375 -5.25,1.3125 -2.8125,0.46875 -6.28125,1.125 -0.84375,0.1875 -1.40625,-0.0937 -0.5625,-0.1875 -1.3125,-0.1875 -2.15625,0.46875 -5.15625,0.84375 -3,0.375 -6.09375,0.28125 -3.09375,-0.0937 -5.906253,-0.84375 -2.8125,-0.65625 -4.59375,-2.4375 -0.75,-0.65625 -1.03125,-1.5 -0.1875,-0.9375 -1.21875,-1.40625 -0.09375,-1.21875 -0.375,-2.71875 -0.28125,-1.5 -0.5625,-3.09375 -0.28125,-1.6875 -0.46875,-3.28125 -0.09375,-1.59375 0.1875,-2.90625 0.28125,-1.40625 1.125,-2.53125 0.9375,-1.125 0.65625,-2.4375 0.46875,-0.09375 0.5625,-0.46875 0.09375,-0.46875 0.75,-0.375 0.5625,-1.6875 1.21875,-3.1875 0.65625,-1.5 1.3125,-2.90625 0.75,-1.40625 1.40625,-2.8125 0.75,-1.5 1.40625,-3.28125 -1.3125,-1.21875 -1.96875,-2.625 -0.5625,-1.5 -0.84375,-2.90625 -0.28125,-1.5 -0.46875,-3 -0.1875,-1.59375 -0.65625,-3.1875 0.9375,-1.40625 2.25,-2.25 1.40625,-0.9375 3.000003,-1.5 1.59375,-0.5625 3.46875,-0.9375 1.875,-0.375 3.9375,-0.84375 3.75,-1.21875 6.65625,-1.875 3,-0.65625 5.8125,-1.03125 2.90625,-0.46875 6,-0.84375 3.09375,-0.375 7.03125,-1.125 0.84375,0.84375 1.59375,0.84375 0.375,-0.84375 0.84375,-0.46875 0.5625,0.28125 0.46875,-0.5625 0.9375,1.59375 2.34375,2.71875 1.5,1.03125 3.28125,1.78125 z"
         style="font-size:96px;line-height:1.25;font-family:'Permanent Marker';-inkscape-font-specification:'Permanent Marker';text-align:center;text-anchor:middle;white-space:pre;shape-inside:url(#rect5951);fill:#000000"
         id="path6114" />
      <path
         d="m 192.53223,71.50614 q -2.34375,0 -5.0625,0.375 -2.71875,0.28125 -5.34375,0.65625 -1.875,0.28125 -3.65625,0.46875 -1.6875,0.1875 -3.09375,0.28125 -0.65625,2.0625 -1.3125,3.65625 -0.65625,1.59375 -1.40625,3.09375 -0.75,1.59375 -1.40625,3.28125 -0.5625,1.59375 -1.125,3.46875 -0.9375,1.5 -1.59375,2.8125 -0.5625,1.21875 -0.9375,2.8125 -1.125,1.40625 -1.6875,3 -0.5625,1.5 -0.84375,2.625 l -0.375,1.125 q -0.5625,0.5625 -0.65625,0.9375 -0.0937,0.28125 -0.46875,0.5625 -0.0937,1.03125 -0.65625,2.0625 -0.1875,0.46875 -0.28125,0.9375 -0.0937,0.375 -0.0937,0.5625 0,0.9375 -0.46875,1.21875 0.0937,0.46875 0,1.03125 -0.0937,0.46875 -0.1875,0.9375 -0.28125,1.125 -0.1875,1.78125 0.28125,0.375 0.46875,0.65625 0.28125,0.28125 0.375,0.75 0.5625,0.375 0.84375,0.46875 0.375,0.28125 1.125,0.65625 l 0.84375,0.9375 q 0.46875,2.71875 -0.84375,4.3125 -1.40625,1.78125 -4.78125,1.78125 h -1.125 q -0.46875,-0.46875 -0.5625,-0.75 -0.75,-0.28125 -1.21875,-0.46875 -0.46875,-0.1875 -0.84375,-0.75 -1.21875,-0.5625 -1.96875,-0.9375 l -0.84375,-0.46875 q 0,-1.03125 0,-1.125 -0.65625,-0.84375 -1.03125,-1.875 -0.28125,-1.03125 -0.46875,-2.0625 -0.1875,-0.84375 -0.46875,-1.59375 -0.1875,-0.75 -0.5625,-1.3125 -0.1875,-5.4375 1.03125,-9.1875 1.21875,-3.75 2.53125,-7.21875 0.75,-1.875 1.5,-3.75 0.75,-1.96875 1.3125,-4.03125 l 0.84375,-0.9375 q 0.65625,-1.5 1.03125,-2.4375 0.46875,-1.03125 0.9375,-2.0625 0.28125,-0.65625 0.46875,-1.21875 0.28125,-0.65625 0.46875,-1.125 -0.5625,0 -1.03125,0.09375 -0.46875,0 -0.9375,0.09375 -0.5625,0.09375 -1.03125,0.1875 -0.46875,0 -0.9375,0 -0.65625,0 -0.9375,-0.09375 -1.03125,0.46875 -2.25,0.46875 h -0.9375 q -0.28125,0 -0.5625,0 -0.1875,-0.09375 -0.375,-0.09375 -0.9375,0 -1.5,0.28125 -1.125,0 -2.15625,0 h -0.9375 q -0.1875,0 -0.46875,0.09375 -0.28125,0 -0.46875,0 -0.65625,0 -1.40625,-0.09375 -0.75,-0.1875 -1.59375,-0.65625 -1.125,-1.5 -1.5,-1.59375 l -0.84375,-1.125 q -0.0937,-0.5625 -0.28125,-1.03125 -0.1875,-0.5625 -0.375,-1.21875 -0.375,-0.9375 -0.75,-1.96875 -0.28125,-1.125 -0.28125,-2.625 0.0937,-0.75 0.375,-1.125 0.28125,-0.375 0.46875,-0.65625 l 0.28125,-1.40625 1.21875,0.09375 h 2.625 q 3,0 6.09375,-0.1875 3.09375,-0.28125 6.375,-0.5625 1.875,-0.1875 3.75,-0.375 1.96875,-0.1875 4.03125,-0.375 0.375,-0.84375 0.75,-1.59375 l 0.9375,-0.46875 q 1.6875,-0.09375 2.34375,0.46875 0.75,0.46875 1.21875,0.9375 2.0625,-0.1875 4.125,-0.375 2.15625,-0.28125 4.3125,-0.65625 3.1875,-0.46875 6.375,-0.84375 3.28125,-0.375 6.28125,-0.375 1.3125,0 2.53125,0.09375 1.21875,0.09375 2.25,0.28125 l 0.9375,0.65625 q 0.28125,0.5625 0.75,1.03125 0.5625,0.46875 1.125,0.9375 1.125,1.03125 2.25,2.4375 1.125,1.40625 0.84375,4.125 -0.75,1.125 -1.125,1.3125 l -0.84375,1.125 -0.9375,-0.09375 q -0.5625,0 -1.03125,0.1875 -0.46875,0.09375 -0.9375,0.28125 -0.375,0.1875 -0.75,0.375 -0.375,0.09375 -0.84375,0.1875 -0.84375,0 -1.40625,0 -0.46875,-0.09375 -1.03125,-0.09375 z"
         style="font-size:96px;line-height:1.25;font-family:'Permanent Marker';-inkscape-font-specification:'Permanent Marker';text-align:center;text-anchor:middle;white-space:pre;shape-inside:url(#rect5951);fill:#000000"
         id="path6116" />
      <path
         d="m 237.62598,63.81864 q 0.0937,0.65625 0,1.03125 0,0.28125 -0.0937,0.5625 0,0.28125 0,0.65625 0,0.28125 0.1875,0.9375 -1.96875,3.1875 -4.59375,4.40625 -2.53125,1.125 -5.53125,1.6875 -3,0.46875 -6.1875,1.03125 -3.09375,0.5625 -6.1875,2.4375 -1.21875,-0.46875 -2.25,0 -0.9375,0.46875 -2.8125,0.28125 -0.5625,0.5625 -1.40625,0.84375 -0.84375,0.1875 -1.6875,0.46875 0.375,0.84375 0.28125,1.78125 0,0.84375 0.28125,1.40625 3.28125,0.28125 7.21875,-0.09375 4.03125,-0.375 7.875,-0.46875 0.0937,0.46875 -0.0937,0.65625 -0.1875,0.09375 -0.0937,0.46875 0.65625,0.46875 1.3125,1.21875 0.65625,0.65625 1.3125,1.3125 0.65625,0.65625 1.3125,1.125 0.75,0.375 1.6875,0.28125 0.375,0.75 0.46875,1.6875 0.1875,0.84375 -0.1875,1.78125 -1.5,1.03125 -3,2.15625 -1.5,1.03125 -3.1875,1.875 -1.59375,0.84375 -3.46875,1.40625 -1.78125,0.46875 -4.03125,0.375 -0.46875,0 -0.75,0 -0.1875,0 -0.5625,-0.28125 -0.75,0.46875 -2.15625,0.28125 -1.3125,-0.1875 -2.0625,0.28125 -1.03125,-0.46875 -2.53125,-0.375 -1.40625,0 -2.53125,-0.375 -1.5,1.96875 -2.71875,4.21875 -1.21875,2.25 -2.15625,4.78125 3.1875,0.46875 5.25,0.375 2.15625,-0.0937 4.03125,-0.28125 1.875,-0.28125 3.84375,-0.46875 1.96875,-0.28125 4.96875,-0.1875 1.875,-1.03125 4.40625,-1.3125 2.625,-0.375 4.78125,-1.125 0.75,0.28125 1.3125,1.03125 0.5625,0.65625 1.03125,1.3125 0.5625,0.5625 1.125,1.03125 0.5625,0.46875 1.40625,0.375 0.375,0.375 0.46875,0.9375 0.1875,0.46875 0.28125,0.9375 0.0937,0.46875 0.28125,0.84375 0.28125,0.28125 0.84375,0.1875 -1.40625,3.09375 -3.28125,4.78125 -1.78125,1.59375 -4.125,2.4375 -2.34375,0.84375 -5.25,1.3125 -2.8125,0.46875 -6.28125,1.125 -0.84375,0.1875 -1.40625,-0.0937 -0.5625,-0.1875 -1.3125,-0.1875 -2.15625,0.46875 -5.15625,0.84375 -3,0.375 -6.09375,0.28125 -3.09375,-0.0937 -5.90625,-0.84375 -2.8125,-0.65625 -4.59375,-2.4375 -0.75,-0.65625 -1.03125,-1.5 -0.1875,-0.9375 -1.21875,-1.40625 -0.0937,-1.21875 -0.375,-2.71875 -0.28125,-1.5 -0.5625,-3.09375 -0.28125,-1.6875 -0.46875,-3.28125 -0.0937,-1.59375 0.1875,-2.90625 0.28125,-1.40625 1.125,-2.53125 0.9375,-1.125 0.65625,-2.4375 0.46875,-0.09375 0.5625,-0.46875 0.0937,-0.46875 0.75,-0.375 0.5625,-1.6875 1.21875,-3.1875 0.65625,-1.5 1.3125,-2.90625 0.75,-1.40625 1.40625,-2.8125 0.75,-1.5 1.40625,-3.28125 -1.3125,-1.21875 -1.96875,-2.625 -0.5625,-1.5 -0.84375,-2.90625 -0.28125,-1.5 -0.46875,-3 -0.1875,-1.59375 -0.65625,-3.1875 0.9375,-1.40625 2.25,-2.25 1.40625,-0.9375 3,-1.5 1.59375,-0.5625 3.46875,-0.9375 1.875,-0.375 3.9375,-0.84375 3.75,-1.21875 6.65625,-1.875 3,-0.65625 5.8125,-1.03125 2.90625,-0.46875 6,-0.84375 3.09375,-0.375 7.03125,-1.125 0.84375,0.84375 1.59375,0.84375 0.375,-0.84375 0.84375,-0.46875 0.5625,0.28125 0.46875,-0.5625 0.9375,1.59375 2.34375,2.71875 1.5,1.03125 3.28125,1.78125 z"
         style="font-size:96px;line-height:1.25;font-family:'Permanent Marker';-inkscape-font-specification:'Permanent Marker';text-align:center;text-anchor:middle;white-space:pre;shape-inside:url(#rect5951);fill:#000000"
         id="path6118" />
      <path
         d="m 259.18848,47.31864 q 1.125,0.9375 2.15625,1.6875 1.03125,0.75 1.875,1.59375 0.84375,0.84375 1.21875,1.96875 0.46875,1.03125 0.28125,2.625 -0.75,0.84375 -1.78125,3.1875 -1.03125,2.25 -2.53125,6.5625 -0.75,2.15625 -1.5,5.90625 -0.65625,3.65625 -1.6875,7.6875 -0.9375,3.9375 -2.34375,7.5 -1.40625,3.46875 -3.5625,5.0625 -0.84375,-0.28125 -1.78125,-0.46875 -0.9375,-0.1875 -1.6875,-0.5625 -0.75,-0.375 -1.21875,-1.03125 -0.375,-0.75 -0.28125,-2.0625 -2.15625,-1.21875 -2.8125,-2.90625 -0.5625,-1.78125 -0.46875,-3.65625 0.0937,-1.96875 0.375,-3.84375 0.375,-1.96875 0.0937,-3.5625 0.9375,-3.84375 1.96875,-8.25 1.125,-4.5 1.96875,-8.625 0.84375,-0.84375 1.3125,-2.0625 0.5625,-1.3125 0.9375,-2.8125 0.375,-1.5 0.75,-2.90625 0.46875,-1.5 1.21875,-2.8125 0.46875,0.46875 1.59375,0.46875 1.125,-0.09375 1.40625,-0.65625 0.5625,0.9375 2.0625,1.59375 1.5,0.5625 2.4375,0.375 z"
         style="font-size:96px;line-height:1.25;font-family:'Permanent Marker';-inkscape-font-specification:'Permanent Marker';text-align:center;text-anchor:middle;white-space:pre;shape-inside:url(#rect5951);fill:#000000"
         id="path6120" />
      <path
         d="m 262.37598,74.41239 q 0.65625,-1.96875 2.0625,-3.375 1.5,-1.40625 3.1875,-2.34375 1.78125,-1.03125 3.65625,-1.6875 1.875,-0.65625 3.5625,-1.125 3.75,-1.59375 7.96875,-3 4.3125,-1.5 8.71875,-2.625 4.5,-1.125 9.1875,-1.40625 4.6875,-0.375 9.84375,1.125 0.28125,0.9375 0.84375,1.78125 0.5625,0.84375 1.125,1.6875 0.65625,0.84375 1.125,1.6875 0.46875,0.75 0.5625,1.59375 0.9375,0.84375 1.5,1.875 0.5625,0.9375 0.1875,2.53125 -0.9375,0.75 -1.875,1.40625 -0.84375,0.5625 -1.875,1.03125 -3.46875,-0.84375 -7.03125,-0.5625 -3.5625,0.28125 -6.375,0.46875 -0.84375,-0.84375 -2.0625,-0.84375 -1.125,0 -2.4375,0.375 -1.21875,0.375 -2.53125,0.75 -1.21875,0.375 -2.34375,0.1875 -0.9375,0.75 -2.34375,1.03125 -1.3125,0.1875 -2.90625,0.375 -0.0937,0.46875 0.1875,0.65625 0.28125,0.09375 0.0937,0.5625 0.5625,0.65625 1.40625,0.9375 0.9375,0.28125 1.875,0.5625 1.03125,0.28125 1.78125,0.75 0.75,0.375 1.03125,1.3125 1.40625,0 2.4375,0.65625 1.03125,0.65625 1.6875,1.59375 0.65625,0.9375 0.9375,2.0625 0.375,1.03125 0.375,1.875 0.28125,0.75 0.65625,0.65625 0.375,-0.09375 0.84375,0.375 0.28125,1.21875 1.40625,2.53125 1.125,1.21875 1.78125,2.71875 0.1875,2.34375 0.28125,4.21875 0.0937,1.78125 -0.65625,3.65625 -1.40625,3.46875 -3.9375,6.1875 -2.4375,2.71875 -5.625,4.875 -3.09375,2.0625 -6.65625,3.5625 -3.5625,1.5 -6.9375,2.53125 -0.375,-0.0937 -0.75,0 -0.375,0.0937 -0.1875,-0.46875 -0.75,0.65625 -1.6875,0.84375 -0.84375,0.1875 -1.875,0.0937 -1.03125,0 -2.15625,-0.0937 -1.03125,-0.0937 -1.96875,0.0937 -0.65625,-0.65625 -1.21875,-1.3125 -0.46875,-0.5625 -0.75,-1.5 -0.46875,0 -0.46875,-0.46875 0.0937,-0.46875 -0.28125,-0.46875 0.5625,-0.9375 0.46875,-1.03125 0,-0.1875 -0.28125,-0.28125 -0.1875,-0.0937 -0.375,-0.1875 -0.1875,-0.1875 -0.0937,-0.46875 0.375,-0.75 0.28125,-1.6875 -0.0937,-1.03125 -0.1875,-2.0625 -0.0937,-1.03125 0.0937,-1.96875 0.28125,-0.9375 1.40625,-1.5 3.1875,0.375 6,-0.1875 2.90625,-0.65625 5.4375,-1.78125 2.53125,-1.125 4.78125,-2.4375 2.34375,-1.3125 4.59375,-2.34375 0.28125,-0.84375 0.75,-1.40625 0.5625,-0.5625 1.125,-1.03125 0.5625,-0.46875 1.03125,-1.03125 0.46875,-0.5625 0.65625,-1.40625 0.0937,-0.65625 -0.375,-0.75 -0.375,-0.1875 -0.375,-0.75 l -1.03125,-0.28125 q -1.78125,-1.03125 -4.03125,-1.6875 -2.25,-0.75 -3.84375,-1.59375 -1.03125,0.5625 -1.96875,0.28125 -0.84375,-0.28125 -2.25,-0.5625 -3.1875,-0.1875 -6.1875,-0.65625 -2.90625,-0.46875 -5.625,-1.6875 -0.1875,-0.46875 -0.46875,-0.84375 -0.28125,-0.375 -1.03125,-0.1875 -0.5625,-0.75 -1.125,-1.40625 -0.5625,-0.75 -1.03125,-1.59375 0.1875,-1.125 0.28125,-1.875 0.0937,-0.84375 -0.5625,-1.59375 0.375,-1.21875 0.5625,-1.96875 0.1875,-0.75 0,-1.96875 z"
         style="font-size:96px;line-height:1.25;font-family:'Permanent Marker';-inkscape-font-specification:'Permanent Marker';text-align:center;text-anchor:middle;white-space:pre;shape-inside:url(#rect5951);fill:#000000"
         id="path6122" />
      <path
         d="m 350.31348,117.63114 q -2.71875,-0.65625 -4.21875,-2.15625 -1.40625,-1.59375 -2.15625,-3.65625 -0.65625,-2.15625 -0.9375,-4.6875 -0.1875,-2.53125 -0.46875,-5.25 0.375,-1.21875 0.9375,-2.0625 0.65625,-0.84375 0.5625,-2.34375 1.03125,-3 1.875,-5.8125 0.84375,-2.8125 1.125,-5.8125 0.5625,-0.84375 1.125,-1.125 0.75,-5.34375 0.1875,-10.96875 -0.5625,-5.625 -1.875,-10.40625 0.0937,-1.03125 0.28125,-1.5 0.1875,-0.5625 0,-0.9375 -0.1875,-0.84375 0.5625,-0.84375 0.75,0 1.5,0 0,-1.6875 -0.65625,-3.28125 -0.5625,-1.6875 -1.125,-3.84375 0.75,-1.6875 1.03125,-3.28125 0.28125,-1.59375 1.03125,-2.90625 3,0.9375 5.90625,2.15625 2.90625,1.21875 5.71875,2.4375 2.8125,1.125 5.53125,2.25 2.71875,1.03125 5.34375,1.6875 4.03125,2.90625 8.25,5.8125 4.3125,2.8125 7.78125,6.28125 3.5625,3.375 5.90625,7.78125 2.34375,4.40625 2.71875,10.40625 -0.1875,0.5625 -0.28125,0.9375 -0.0937,0.375 -0.1875,0.75 -0.0937,0.375 -0.0937,0.84375 0,0.46875 0,1.3125 -3.375,5.90625 -8.53125,9.9375 -5.15625,4.03125 -11.25,7.125 -6.09375,3.09375 -12.75,5.71875 -6.5625,2.53125 -12.84375,5.4375 z m 9.1875,-53.15625 q -0.84375,0 -1.21875,0.375 1.125,4.21875 1.6875,7.96875 0.5625,3.75 0.5625,7.5 0.0937,3.75 -0.375,7.6875 -0.46875,3.9375 -1.3125,8.53125 1.21875,-0.09375 2.15625,-0.46875 0.9375,-0.375 1.875,-0.84375 1.03125,-0.46875 2.0625,-0.84375 1.125,-0.375 2.53125,-0.46875 0.375,-0.75 0.9375,-1.125 0.65625,-0.46875 1.125,-0.9375 2.34375,-0.9375 4.6875,-1.96875 2.34375,-1.03125 4.3125,-2.34375 1.96875,-1.3125 3.5625,-3 1.59375,-1.6875 2.625,-4.03125 -0.75,-1.40625 -1.875,-2.34375 -1.03125,-1.03125 -2.25,-1.96875 -1.125,-1.03125 -2.25,-2.0625 -1.03125,-1.125 -1.6875,-2.53125 -1.5,-0.1875 -2.625,-0.75 -1.125,-0.65625 -2.15625,-1.21875 -1.03125,-0.65625 -2.25,-1.21875 -1.125,-0.5625 -2.71875,-0.65625 -2.4375,-1.3125 -4.40625,-1.78125 -1.96875,-0.5625 -3,-1.5 z"
         style="font-size:96px;line-height:1.25;font-family:'Permanent Marker';-inkscape-font-specification:'Permanent Marker';text-align:center;text-anchor:middle;white-space:pre;shape-inside:url(#rect5951);fill:#000000"
         id="path6124" />
      <path
         d="m 452.40723,88.47489 q -0.0937,1.125 0.1875,2.15625 0.28125,1.03125 0.65625,2.0625 0.46875,0.9375 0.84375,1.96875 0.375,1.03125 0.5625,2.0625 0.1875,1.3125 0,2.90625 -0.1875,1.5 -0.65625,3 -0.46875,1.40625 -1.21875,2.625 -0.75,1.125 -1.78125,1.6875 -1.3125,1.6875 -3.1875,2.625 -1.875,0.9375 -3.46875,2.25 -1.03125,0.65625 -2.34375,0.9375 -1.21875,0.28125 -2.53125,0.5625 -1.03125,0.5625 -2.4375,1.21875 -1.40625,0.5625 -2.90625,1.125 -1.5,0.46875 -3,0.75 -1.5,0.1875 -2.625,0.0937 -2.8125,1.03125 -5.53125,1.3125 -2.625,0.375 -6.1875,-0.375 -3.375,0.46875 -6.28125,-0.28125 -2.8125,-0.75 -5.0625,-2.34375 -2.15625,-1.6875 -3.84375,-3.9375 -1.59375,-2.34375 -2.625,-4.875 -0.75,-5.34375 0.375,-9.65625 1.125,-4.40625 3.1875,-8.0625 2.15625,-3.75 4.875,-6.84375 2.71875,-3.1875 5.25,-6.1875 0.5625,0.1875 0.84375,0 0.375,-0.28125 0.65625,-0.65625 0.28125,-0.46875 0.5625,-0.84375 0.375,-0.375 0.84375,-0.46875 0.65625,-1.40625 1.875,-2.0625 1.3125,-0.75 2.0625,-2.0625 0.84375,-0.1875 1.40625,-0.5625 0.5625,-0.375 1.03125,-0.84375 0.5625,-0.46875 1.125,-0.84375 0.5625,-0.46875 1.3125,-0.65625 v -1.03125 q 1.6875,-0.75 2.4375,-1.6875 0.84375,-1.03125 1.96875,-2.4375 0.84375,-0.09375 1.3125,-0.09375 0.5625,0 1.59375,-0.1875 0.75,-1.3125 1.3125,-1.96875 0.65625,-0.65625 1.875,-1.40625 1.125,0.5625 2.4375,0.75 1.40625,0.1875 2.4375,1.21875 0.0937,0.9375 0.5625,1.5 0.46875,0.46875 1.03125,0.9375 0.5625,0.375 1.03125,0.84375 0.5625,0.46875 0.75,1.3125 0.375,0.09375 0.46875,-0.09375 0.1875,-0.1875 0.5625,-0.09375 0.28125,1.3125 0.65625,1.78125 0.375,0.375 0.75,1.59375 -0.46875,0.9375 -0.75,1.96875 -0.1875,0.9375 -1.125,1.40625 -0.0937,0.65625 0.375,0.75 0.46875,0 0.5625,0.46875 0.0937,0.84375 -0.28125,1.21875 2.25,3.65625 4.03125,7.78125 1.78125,4.03125 4.03125,7.6875 z m -11.71875,8.90625 q 0.375,-1.03125 0.9375,-1.6875 0.65625,-0.65625 0.75,-1.96875 -0.46875,-0.75 -0.5625,-1.125 -0.0937,-0.46875 -0.0937,-1.40625 -2.0625,-2.90625 -3.5625,-6.1875 -1.5,-3.375 -3.375,-6.28125 -0.1875,0.375 -0.65625,0.75 -0.46875,0.375 -1.03125,-0.1875 -0.1875,0.75 -0.65625,1.125 -0.46875,0.28125 -1.03125,0.28125 -0.5625,-0.09375 -1.21875,-0.28125 -0.5625,-0.28125 -1.03125,-0.65625 -2.71875,2.15625 -5.4375,4.21875 -2.71875,2.0625 -4.875,4.78125 -0.375,0.1875 -0.46875,0.1875 -0.0937,-0.09375 -0.5625,0.09375 -0.75,1.78125 -1.875,3.28125 -1.03125,1.40625 -2.0625,2.90625 -1.03125,1.5 -1.78125,3.1875 -0.75,1.6875 -0.84375,3.9375 1.59375,1.3125 3.75,1.59375 2.15625,0.28125 4.40625,0.0937 2.34375,-0.1875 4.5,-0.5625 2.25,-0.46875 4.125,-0.46875 3.9375,-0.9375 6.75,-2.4375 2.8125,-1.59375 5.90625,-3.1875 z"
         style="font-size:96px;line-height:1.25;font-family:'Permanent Marker';-inkscape-font-specification:'Permanent Marker';text-align:center;text-anchor:middle;white-space:pre;shape-inside:url(#rect5951);fill:#000000"
         id="path6126" />
      <path
         d="m 477.34473,99.53739 q -0.84375,0.1875 -1.21875,1.03125 -0.375,0.75 -0.75,1.59375 -0.28125,0.84375 -0.65625,1.59375 -0.28125,0.65625 -0.9375,0.65625 -0.0937,0.75 -0.5625,1.3125 -0.375,0.5625 -0.75,1.21875 -0.375,0.5625 -0.5625,1.3125 -0.1875,0.65625 0.1875,1.59375 -0.75,0.5625 -0.9375,1.59375 -0.1875,1.03125 -0.46875,1.96875 -0.1875,0.9375 -0.75,1.59375 -0.5625,0.65625 -2.0625,0.5625 -0.28125,0.375 -0.0937,0.46875 0.1875,0.0937 0.28125,0.65625 -1.03125,-0.1875 -1.59375,0.0937 -0.46875,0.375 -1.21875,0.46875 -1.78125,-0.5625 -3,-1.96875 -1.125,-1.40625 -2.0625,-3.09375 -0.84375,-1.78125 -1.59375,-3.5625 -0.65625,-1.78125 -1.3125,-3.09375 0.28125,-1.03125 0.0937,-1.96875 -0.1875,-1.03125 -0.65625,-1.6875 4.59375,-9.75 10.03125,-20.8125 5.4375,-11.0625 10.3125,-21.84375 2.15625,0.84375 4.21875,1.96875 2.15625,1.03125 3.84375,2.4375 1.78125,1.40625 3,3.28125 1.21875,1.78125 1.59375,4.03125 -0.1875,0.5625 -0.46875,0.46875 -0.1875,-0.1875 -0.375,0.09375 0.375,0.46875 0.375,0.65625 0.0937,0.1875 0,0.375 0,0.1875 0,0.5625 0,0.28125 0.28125,0.84375 -0.375,-0.09375 -0.5625,0.09375 -0.0937,0.1875 -0.5625,0 0.375,1.03125 0.1875,1.6875 -0.0937,0.65625 -0.375,1.21875 -0.28125,0.46875 -0.46875,1.125 -0.1875,0.5625 0.0937,1.5 -0.28125,0 -0.46875,0.1875 -0.0937,0.09375 -0.1875,0.28125 -0.0937,0.09375 -0.28125,0.28125 -0.0937,0.09375 -0.375,0 0.28125,2.0625 0.1875,4.125 -0.0937,2.0625 -0.1875,4.21875 0,2.0625 0.0937,4.40625 0.0937,2.25 0.65625,4.6875 3.375,-1.96875 5.34375,-5.0625 2.0625,-3.09375 3.28125,-6.9375 1.3125,-3.84375 1.96875,-8.25 0.65625,-4.40625 1.40625,-9 0.84375,-0.84375 1.3125,-2.0625 0.46875,-1.21875 0.84375,-2.53125 0.375,-1.40625 0.75,-2.71875 0.375,-1.40625 0.9375,-2.53125 1.40625,0.1875 2.34375,0.9375 1.03125,0.65625 1.875,1.5 0.84375,0.75 1.78125,1.5 0.9375,0.65625 2.34375,0.84375 1.125,1.59375 2.0625,3.09375 0.9375,1.5 1.21875,3.1875 -0.46875,0.75 -0.75,1.6875 -0.1875,0.9375 -0.46875,1.875 -0.28125,0.9375 -0.75,1.78125 -0.46875,0.75 -1.3125,1.3125 -0.28125,2.4375 -0.75,4.5 -0.375,1.96875 -0.84375,3.9375 -0.375,1.96875 -0.65625,4.125 -0.28125,2.0625 -0.1875,4.59375 -0.75,2.15625 -1.59375,4.59375 -0.84375,2.4375 -1.3125,4.40625 -1.5,1.21875 -2.34375,2.90625 -0.84375,1.6875 -1.78125,3.375 -0.375,0.375 -0.46875,0.1875 -0.0937,-0.1875 -0.65625,-0.28125 0.0937,0.375 0,0.5625 -0.0937,0.1875 -0.28125,0.375 -0.0937,0.0937 -0.1875,0.375 0,0.28125 0.1875,0.75 -1.3125,0.5625 -2.34375,1.59375 -1.03125,1.03125 -2.25,1.875 -1.125,0.84375 -2.8125,1.125 -1.59375,0.28125 -4.21875,-0.65625 -3.84375,-2.8125 -6.84375,-6.46875 -2.90625,-3.65625 -4.78125,-8.71875 z"
         style="font-size:96px;line-height:1.25;font-family:'Permanent Marker';-inkscape-font-specification:'Permanent Marker';text-align:center;text-anchor:middle;white-space:pre;shape-inside:url(#rect5951);fill:#000000"
         id="path6128" />
      <path
         d="m 567.62598,63.25614 q 0.1875,2.0625 0.65625,3.5625 0.46875,1.5 1.03125,2.90625 0.46875,1.3125 0.84375,2.625 0.46875,1.21875 0.65625,3 -0.75,2.4375 -1.125,4.5 -0.28125,2.0625 -0.65625,4.3125 -1.5,3.28125 -2.90625,5.8125 -1.40625,2.53125 -2.25,4.40625 -0.46875,0.46875 -0.84375,1.125 -0.28125,0.5625 -0.65625,1.21875 -0.1875,0.28125 -0.46875,0.84375 -0.28125,0.5625 -0.46875,0.75 l -1.875,-0.65625 -0.375,2.34375 -1.3125,0.375 -0.9375,1.125 q -1.78125,3.09375 -3.75,5.25 -1.96875,2.0625 -4.5,3.75 -2.4375,1.59375 -5.625,3 -3.09375,1.40625 -7.03125,3.09375 -1.59375,-0.1875 -2.8125,-0.1875 -1.125,-0.0937 -2.15625,-0.1875 -1.78125,0 -4.40625,-0.28125 -0.28125,-0.75 -0.84375,-1.03125 -0.5625,-0.28125 -1.03125,-0.28125 -1.59375,-0.75 -2.4375,-2.15625 -0.75,-1.5 -1.5,-3.1875 -0.46875,-1.03125 -0.9375,-1.875 -0.46875,-0.9375 -1.03125,-1.875 l 1.59375,-0.46875 -2.0625,-2.25 q -0.1875,-0.28125 -0.46875,-0.46875 -0.28125,-0.28125 -0.46875,-0.5625 l -0.0937,-1.5 q -0.28125,-6.46875 -0.28125,-11.8125 0.0937,-5.4375 1.5,-9.65625 v -1.03125 q 0.28125,-2.0625 0.5625,-3.375 0.28125,-1.40625 0.46875,-2.625 0.28125,-2.0625 0.84375,-3.84375 1.3125,-0.28125 1.96875,-1.03125 0.65625,-0.84375 1.125,-1.5 1.3125,-0.09375 1.78125,0.375 0.46875,0.46875 0.9375,1.5 0.46875,0.84375 1.125,1.875 0.75,1.03125 2.15625,1.59375 0.1875,0.75 0.46875,1.59375 0.375,0.75 0.75,1.6875 0.75,1.59375 1.3125,3.375 0.65625,1.6875 0.75,3.28125 -0.9375,1.78125 -1.5,4.125 -0.46875,2.34375 -0.65625,4.78125 -0.0937,2.34375 0.0937,4.59375 0.28125,2.15625 0.84375,3.65625 l 0.5625,1.21875 1.59375,-0.1875 q 2.8125,-0.75 5.0625,-1.59375 2.34375,-0.9375 4.3125,-2.15625 1.96875,-1.21875 3.75,-2.8125 1.78125,-1.6875 3.75,-3.84375 1.96875,-2.15625 3.375,-4.875 1.5,-2.8125 2.4375,-5.8125 1.03125,-3 1.5,-5.90625 0.5625,-3 0.75,-5.625 1.59375,-0.5625 1.59375,-2.25 l -0.1875,-1.03125 q -0.375,-0.5625 0,-1.3125 0.5625,-1.78125 2.625,-2.71875 1.5,0.9375 2.625,2.0625 1.21875,1.125 2.25,2.25 z"
         style="font-size:96px;line-height:1.25;font-family:'Permanent Marker';-inkscape-font-specification:'Permanent Marker';text-align:center;text-anchor:middle;white-space:pre;shape-inside:url(#rect5951);fill:#000000"
         id="path6130" />
      <path
         d="m 621.90723,71.50614 q -2.34375,0 -5.0625,0.375 -2.71875,0.28125 -5.34375,0.65625 -1.875,0.28125 -3.65625,0.46875 -1.6875,0.1875 -3.09375,0.28125 -0.65625,2.0625 -1.3125,3.65625 -0.65625,1.59375 -1.40625,3.09375 -0.75,1.59375 -1.40625,3.28125 -0.5625,1.59375 -1.125,3.46875 -0.9375,1.5 -1.59375,2.8125 -0.5625,1.21875 -0.9375,2.8125 -1.125,1.40625 -1.6875,3 -0.5625,1.5 -0.84375,2.625 l -0.375,1.125 q -0.5625,0.5625 -0.65625,0.9375 -0.0937,0.28125 -0.46875,0.5625 -0.0937,1.03125 -0.65625,2.0625 -0.1875,0.46875 -0.28125,0.9375 -0.0937,0.375 -0.0937,0.5625 0,0.9375 -0.46875,1.21875 0.0937,0.46875 0,1.03125 -0.0937,0.46875 -0.1875,0.9375 -0.28125,1.125 -0.1875,1.78125 0.28125,0.375 0.46875,0.65625 0.28125,0.28125 0.375,0.75 0.5625,0.375 0.84375,0.46875 0.375,0.28125 1.125,0.65625 l 0.84375,0.9375 q 0.46875,2.71875 -0.84375,4.3125 -1.40625,1.78125 -4.78125,1.78125 h -1.125 q -0.46875,-0.46875 -0.5625,-0.75 -0.75,-0.28125 -1.21875,-0.46875 -0.46875,-0.1875 -0.84375,-0.75 -1.21875,-0.5625 -1.96875,-0.9375 l -0.84375,-0.46875 q 0,-1.03125 0,-1.125 -0.65625,-0.84375 -1.03125,-1.875 -0.28125,-1.03125 -0.46875,-2.0625 -0.1875,-0.84375 -0.46875,-1.59375 -0.1875,-0.75 -0.5625,-1.3125 -0.1875,-5.4375 1.03125,-9.1875 1.21875,-3.75 2.53125,-7.21875 0.75,-1.875 1.5,-3.75 0.75,-1.96875 1.3125,-4.03125 l 0.84375,-0.9375 q 0.65625,-1.5 1.03125,-2.4375 0.46875,-1.03125 0.9375,-2.0625 0.28125,-0.65625 0.46875,-1.21875 0.28125,-0.65625 0.46875,-1.125 -0.5625,0 -1.03125,0.09375 -0.46875,0 -0.9375,0.09375 -0.5625,0.09375 -1.03125,0.1875 -0.46875,0 -0.9375,0 -0.65625,0 -0.9375,-0.09375 -1.03125,0.46875 -2.25,0.46875 h -0.9375 q -0.28125,0 -0.5625,0 -0.1875,-0.09375 -0.375,-0.09375 -0.9375,0 -1.5,0.28125 -1.125,0 -2.15625,0 h -0.9375 q -0.1875,0 -0.46875,0.09375 -0.28125,0 -0.46875,0 -0.65625,0 -1.40625,-0.09375 -0.75,-0.1875 -1.59375,-0.65625 -1.125,-1.5 -1.5,-1.59375 l -0.84375,-1.125 q -0.0937,-0.5625 -0.28125,-1.03125 -0.1875,-0.5625 -0.375,-1.21875 -0.375,-0.9375 -0.75,-1.96875 -0.28125,-1.125 -0.28125,-2.625 0.0937,-0.75 0.375,-1.125 0.28125,-0.375 0.46875,-0.65625 l 0.28125,-1.40625 1.21875,0.09375 h 2.625 q 3,0 6.09375,-0.1875 3.09375,-0.28125 6.375,-0.5625 1.875,-0.1875 3.75,-0.375 1.96875,-0.1875 4.03125,-0.375 0.375,-0.84375 0.75,-1.59375 l 0.9375,-0.46875 q 1.6875,-0.09375 2.34375,0.46875 0.75,0.46875 1.21875,0.9375 2.0625,-0.1875 4.125,-0.375 2.15625,-0.28125 4.3125,-0.65625 3.1875,-0.46875 6.375,-0.84375 3.28125,-0.375 6.28125,-0.375 1.3125,0 2.53125,0.09375 1.21875,0.09375 2.25,0.28125 l 0.9375,0.65625 q 0.28125,0.5625 0.75,1.03125 0.5625,0.46875 1.125,0.9375 1.125,1.03125 2.25,2.4375 1.125,1.40625 0.84375,4.125 -0.75,1.125 -1.125,1.3125 l -0.84375,1.125 -0.9375,-0.09375 q -0.5625,0 -1.03125,0.1875 -0.46875,0.09375 -0.9375,0.28125 -0.375,0.1875 -0.75,0.375 -0.375,0.09375 -0.84375,0.1875 -0.84375,0 -1.40625,0 -0.46875,-0.09375 -1.03125,-0.09375 z"
         style="font-size:96px;line-height:1.25;font-family:'Permanent Marker';-inkscape-font-specification:'Permanent Marker';text-align:center;text-anchor:middle;white-space:pre;shape-inside:url(#rect5951);fill:#000000"
         id="path6132" />
      <path
         d="m 616.18848,74.41239 q 0.65625,-1.96875 2.0625,-3.375 1.5,-1.40625 3.1875,-2.34375 1.78125,-1.03125 3.65625,-1.6875 1.875,-0.65625 3.5625,-1.125 3.75,-1.59375 7.96875,-3 4.3125,-1.5 8.71875,-2.625 4.5,-1.125 9.1875,-1.40625 4.6875,-0.375 9.84375,1.125 0.28125,0.9375 0.84375,1.78125 0.5625,0.84375 1.125,1.6875 0.65625,0.84375 1.125,1.6875 0.46875,0.75 0.5625,1.59375 0.9375,0.84375 1.5,1.875 0.5625,0.9375 0.1875,2.53125 -0.9375,0.75 -1.875,1.40625 -0.84375,0.5625 -1.875,1.03125 -3.46875,-0.84375 -7.03125,-0.5625 -3.5625,0.28125 -6.375,0.46875 -0.84375,-0.84375 -2.0625,-0.84375 -1.125,0 -2.4375,0.375 -1.21875,0.375 -2.53125,0.75 -1.21875,0.375 -2.34375,0.1875 -0.9375,0.75 -2.34375,1.03125 -1.3125,0.1875 -2.90625,0.375 -0.0937,0.46875 0.1875,0.65625 0.28125,0.09375 0.0937,0.5625 0.5625,0.65625 1.40625,0.9375 0.9375,0.28125 1.875,0.5625 1.03125,0.28125 1.78125,0.75 0.75,0.375 1.03125,1.3125 1.40625,0 2.4375,0.65625 1.03125,0.65625 1.6875,1.59375 0.65625,0.9375 0.9375,2.0625 0.375,1.03125 0.375,1.875 0.28125,0.75 0.65625,0.65625 0.375,-0.09375 0.84375,0.375 0.28125,1.21875 1.40625,2.53125 1.125,1.21875 1.78125,2.71875 0.1875,2.34375 0.28125,4.21875 0.0937,1.78125 -0.65625,3.65625 -1.40625,3.46875 -3.9375,6.1875 -2.4375,2.71875 -5.625,4.875 -3.09375,2.0625 -6.65625,3.5625 -3.5625,1.5 -6.9375,2.53125 -0.375,-0.0937 -0.75,0 -0.375,0.0937 -0.1875,-0.46875 -0.75,0.65625 -1.6875,0.84375 -0.84375,0.1875 -1.875,0.0937 -1.03125,0 -2.15625,-0.0937 -1.03125,-0.0937 -1.96875,0.0937 -0.65625,-0.65625 -1.21875,-1.3125 -0.46875,-0.5625 -0.75,-1.5 -0.46875,0 -0.46875,-0.46875 0.0937,-0.46875 -0.28125,-0.46875 0.5625,-0.9375 0.46875,-1.03125 0,-0.1875 -0.28125,-0.28125 -0.1875,-0.0937 -0.375,-0.1875 -0.1875,-0.1875 -0.0937,-0.46875 0.375,-0.75 0.28125,-1.6875 -0.0937,-1.03125 -0.1875,-2.0625 -0.0937,-1.03125 0.0937,-1.96875 0.28125,-0.9375 1.40625,-1.5 3.1875,0.375 6,-0.1875 2.90625,-0.65625 5.4375,-1.78125 2.53125,-1.125 4.78125,-2.4375 2.34375,-1.3125 4.59375,-2.34375 0.28125,-0.84375 0.75,-1.40625 0.5625,-0.5625 1.125,-1.03125 0.5625,-0.46875 1.03125,-1.03125 0.46875,-0.5625 0.65625,-1.40625 0.0937,-0.65625 -0.375,-0.75 -0.375,-0.1875 -0.375,-0.75 l -1.03125,-0.28125 q -1.78125,-1.03125 -4.03125,-1.6875 -2.25,-0.75 -3.84375,-1.59375 -1.03125,0.5625 -1.96875,0.28125 -0.84375,-0.28125 -2.25,-0.5625 -3.1875,-0.1875 -6.1875,-0.65625 -2.90625,-0.46875 -5.625,-1.6875 -0.1875,-0.46875 -0.46875,-0.84375 -0.28125,-0.375 -1.03125,-0.1875 -0.5625,-0.75 -1.125,-1.40625 -0.5625,-0.75 -1.03125,-1.59375 0.1875,-1.125 0.28125,-1.875 0.0937,-0.84375 -0.5625,-1.59375 0.375,-1.21875 0.5625,-1.96875 0.1875,-0.75 0,-1.96875 z"
         style="font-size:96px;line-height:1.25;font-family:'Permanent Marker';-inkscape-font-specification:'Permanent Marker';text-align:center;text-anchor:middle;white-space:pre;shape-inside:url(#rect5951);fill:#000000"
         id="path6134" />
    </g>
  </g>
</svg>
