<?xml version="1.0" encoding="UTF-8" standalone="no"?>
<!-- Created with Inkscape (http://www.inkscape.org/) -->

<svg
   width="91.066437mm"
   height="35.899982mm"
   viewBox="0 0 91.066434 35.899983"
   version="1.1"
   id="svg2064"
   inkscape:version="1.1.1 (c3084ef, 2021-09-22)"
   sodipodi:docname="shop.svg"
   xmlns:inkscape="http://www.inkscape.org/namespaces/inkscape"
   xmlns:sodipodi="http://sodipodi.sourceforge.net/DTD/sodipodi-0.dtd"
   xmlns="http://www.w3.org/2000/svg"
   xmlns:svg="http://www.w3.org/2000/svg">
  <sodipodi:namedview
     id="namedview2066"
     pagecolor="#505050"
     bordercolor="#eeeeee"
     borderopacity="1"
     inkscape:pageshadow="0"
     inkscape:pageopacity="0"
     inkscape:pagecheckerboard="0"
     inkscape:document-units="mm"
     showgrid="false"
     fit-margin-top="5"
     fit-margin-left="5"
     fit-margin-right="5"
     fit-margin-bottom="5"
     inkscape:zoom="0.81393987"
     inkscape:cx="123.47349"
     inkscape:cy="106.8875"
     inkscape:window-width="1356"
     inkscape:window-height="930"
     inkscape:window-x="288"
     inkscape:window-y="25"
     inkscape:window-maximized="0"
     inkscape:current-layer="text7560" />
  <defs
     id="defs2061">
    <rect
       x="97.058769"
       y="130.23074"
       width="203.94627"
       height="99.515953"
       id="rect7562" />
    <rect
       x="87.230034"
       y="143.74525"
       width="346.46295"
       height="55.28664"
       id="rect2402" />
  </defs>
  <g
     inkscape:label="Layer 1"
     inkscape:groupmode="layer"
     id="layer1"
     transform="translate(-83.564673,-146.65164)">
    <g
       aria-label="Order"
       transform="matrix(0.69681296,-0.07737712,0.07737712,0.69681296,-21.97149,68.70334)"
       id="text7560"
       style="font-size:40px;line-height:1.25;font-family:'Permanent Marker';-inkscape-font-specification:'Permanent Marker';text-align:center;text-anchor:middle;white-space:pre;shape-inside:url(#rect7562);fill:#217844">
      <path
         d="m 151.88379,171.81424 q -1.71875,0.23438 -3.125,-0.15625 -1.40625,-0.39062 -2.53906,-1.21093 -1.09375,-0.82032 -1.91407,-1.95313 -0.78125,-1.13281 -1.28906,-2.42187 -0.35156,-2.65625 0.19531,-4.80469 0.54688,-2.1875 1.60157,-4.02344 1.05468,-1.83594 2.38281,-3.4375 1.36719,-1.60156 2.61719,-3.08594 0.27343,0.11719 0.42968,0 0.19532,-0.11718 0.3125,-0.3125 0.15625,-0.19531 0.3125,-0.39062 0.19532,-0.19531 0.42969,-0.27344 0.15625,-0.35156 0.39063,-0.58594 0.27343,-0.23437 0.54687,-0.42968 0.3125,-0.23438 0.54688,-0.46875 0.27343,-0.23438 0.46875,-0.58594 0.39062,-0.0781 0.66406,-0.27344 0.3125,-0.19531 0.54687,-0.42969 0.27344,-0.23437 0.54688,-0.42968 0.27344,-0.19532 0.66406,-0.3125 v -0.50782 q 0.85938,-0.39062 1.25,-0.85937 0.39063,-0.46875 0.9375,-1.21094 0.42969,-0.0391 0.66406,-0.0391 0.27344,0 0.82032,-0.0781 0.35156,-0.66406 0.66406,-0.97656 0.3125,-0.3125 0.89844,-0.70312 0.58593,0.3125 1.25,0.39062 0.66406,0.0391 1.21093,0.58594 0.0391,0.46875 0.27344,0.74219 0.23438,0.23437 0.50781,0.46875 0.27344,0.19531 0.54688,0.42968 0.27344,0.23438 0.35156,0.66407 0.19531,0 0.23438,-0.0781 0.0781,-0.0781 0.27343,-0.0391 0.0781,0.3125 0.15625,0.50781 0.0781,0.19531 0.15625,0.35156 0.11719,0.15625 0.19532,0.35157 0.11718,0.19531 0.19531,0.46875 -0.19531,0.46875 -0.35156,1.01562 -0.15625,0.50781 -0.625,0.70313 0,0.3125 0.23437,0.35156 0.23438,0 0.27344,0.27344 0.0391,0.35156 -0.11719,0.58593 1.09375,1.83594 1.99219,3.86719 0.89844,1.99219 2.03125,3.82813 -0.0781,0.54687 0.0391,1.09375 0.15625,0.50781 0.35156,1.01562 0.23438,0.50781 0.42969,1.01563 0.19531,0.50781 0.27344,1.01562 0.0781,0.66406 0,1.44531 -0.0781,0.74219 -0.3125,1.44532 -0.23438,0.70312 -0.625,1.32812 -0.39063,0.58594 -0.89844,0.89844 -0.625,0.78125 -1.5625,1.28906 -0.9375,0.46875 -1.71875,1.13281 -0.54687,0.3125 -1.17187,0.46875 -0.625,0.11719 -1.28907,0.27344 -0.50781,0.3125 -1.21093,0.625 -0.70313,0.27344 -1.44532,0.50781 -0.74218,0.23438 -1.48437,0.39063 -0.74219,0.11719 -1.32813,0.0391 -1.40625,0.50781 -2.73437,0.70313 -1.32813,0.19531 -3.125,-0.19532 z m 0.50781,-14.21875 q -0.39062,0.89844 -0.9375,1.64063 -0.50781,0.70312 -1.01562,1.44531 -0.50782,0.74219 -0.89844,1.60156 -0.35156,0.82032 -0.39063,1.95313 0.78125,0.66406 1.83594,0.82031 1.09375,0.11719 2.22656,0.0391 1.13282,-0.11718 2.26563,-0.3125 1.13281,-0.19531 2.03125,-0.19531 0,-0.35156 0.3125,-0.35156 1.64062,-0.15625 3.04687,-0.89844 1.40625,-0.78125 2.92969,-1.5625 0.19531,-0.46875 0.50781,-0.82031 0.3125,-0.35156 0.35157,-1.01563 -0.19532,-0.35156 -0.27344,-0.58593 -0.0391,-0.23438 -0.0391,-0.70313 -1.01563,-1.40625 -1.75782,-3.04687 -0.74218,-1.67969 -1.71875,-3.16407 -0.0781,0.19532 -0.3125,0.39063 -0.23437,0.19531 -0.50781,-0.0781 -0.11719,0.39063 -0.35156,0.54688 -0.23438,0.11719 -0.54688,0.11719 -0.27343,0 -0.58593,-0.11719 -0.27344,-0.11719 -0.50782,-0.3125 -1.36718,1.09375 -2.73437,2.10937 -1.32813,1.01563 -2.42188,2.38282 -0.19531,0.11718 -0.23437,0.0781 -0.0391,-0.0391 -0.27344,0.0391 z"
         id="path9307"
         style="fill:#000000;fill-opacity:1" />
      <path
         d="m 178.52441,167.59549 q -0.42968,1.5625 -0.78125,2.38282 -0.3125,0.78125 -0.97656,1.64062 -0.50781,-0.0781 -0.70312,0.11719 -0.19532,0.19531 -0.42969,0.35156 -0.35156,0.0781 -0.50781,0 -0.15625,-0.0781 -0.27344,-0.19531 -0.11719,-0.0781 -0.3125,-0.19531 -0.15625,-0.0781 -0.50781,-0.0781 -0.0781,-0.3125 -0.19532,-0.58594 -0.0781,-0.27343 -0.50781,-0.19531 0.0781,-0.3125 0.0391,-0.50781 -0.0391,-0.23438 -0.11718,-0.39063 -0.0391,-0.19531 -0.0781,-0.35156 -0.0391,-0.19531 0.0391,-0.46875 -0.19531,0 -0.3125,-0.27344 -0.11718,-0.27343 -0.27343,-0.54687 0.11718,-0.70313 0.23437,-1.32813 0.11719,-0.625 0.27344,-1.17187 0.19531,-0.54688 0.3125,-1.09375 0.11719,-0.54688 -0.11719,-1.13281 0.15625,0.11718 0.23438,-0.0391 0.0781,-0.19531 0.11718,-0.46875 0.0391,-0.3125 0.0391,-0.58593 0,-0.3125 -0.0391,-0.50782 0.39063,-1.01562 0.625,-2.07031 0.27344,-1.09375 0.46875,-2.14844 0.23438,-1.05468 0.46875,-2.07031 0.23438,-1.01562 0.625,-1.875 0.42969,-0.0781 0.9375,0.11719 0.54688,0.15625 0.66407,0.42969 1.01562,-0.78125 1.79687,-1.875 0.78125,-1.13282 1.60156,-2.1875 0.82032,-1.05469 1.79688,-1.875 1.01562,-0.82032 2.53906,-0.97657 0.78125,0.58594 1.71875,1.21094 0.97656,0.58594 1.60156,1.5625 0.3125,0.15625 0.50782,0.35156 0.23437,0.15625 0.54687,0.35157 v 0.46875 q 0.46875,0.42968 0.74219,1.01562 0.3125,0.54688 0.54687,1.21094 0.23438,0.625 0.46875,1.28906 0.23438,0.625 0.54688,1.21094 -0.0781,0.19531 -0.0781,0.35156 0,0.11719 0.0391,0.27344 0.0781,0.15625 0.11718,0.3125 0.0391,0.15625 0,0.42969 -0.11718,1.71875 -1.13281,2.77343 -0.97656,1.05469 -2.38281,1.75782 -1.40625,0.66406 -3.00781,1.13281 -1.60157,0.46875 -2.89063,1.01562 0,0.15625 0.11719,0.15625 0.15625,0 0.11719,0.19532 0.9375,0.58593 1.48437,0.9375 0.54688,0.35156 1.01563,0.58593 0.50781,0.23438 1.05468,0.42969 0.58594,0.15625 1.60157,0.39063 1.01562,0.23437 1.5625,0.39062 0.58593,0.11719 1.05468,0.23438 0.46875,0.0781 0.9375,0.15625 0.50782,0.0391 1.40625,0.11718 0.35157,0.35157 0.58594,0.85938 0.27344,0.46875 0.35156,0.97656 0.0781,0.46875 0.0391,0.9375 -0.0391,0.42969 -0.27344,0.70313 0.0391,0.11718 0.15625,0.11718 0.15625,-0.0391 0.3125,0 -0.23438,0.15625 -0.39063,0.39063 -0.15625,0.23437 -0.3125,0.46875 -0.15625,0.23437 -0.35156,0.39062 -0.19531,0.19532 -0.54687,0.23438 -1.21094,0.46875 -3.04688,0.0391 -1.83594,-0.39062 -4.64844,-1.48437 -1.40625,-0.54688 -2.30468,-0.9375 -0.85938,-0.42969 -1.52344,-0.82032 -0.625,-0.42968 -1.17188,-0.89843 -0.50781,-0.46875 -1.25,-1.13282 z m 5.58594,-13.39843 q -0.42969,0.625 -0.97656,1.13281 -0.50781,0.50781 -1.01563,1.05469 -0.46875,0.50781 -0.85937,1.17187 -0.39063,0.625 -0.54688,1.48438 1.36719,-0.15625 2.85157,-0.74219 1.48437,-0.625 2.8125,-1.17188 -0.15625,-1.21093 -0.85938,-1.95312 -0.66406,-0.74219 -1.40625,-0.97656 z"
         id="path9309"
         style="fill:#000000;fill-opacity:1" />
      <path
         d="m 213.13379,161.11112 q -0.0391,0.19531 -0.0781,0.35156 -0.0391,0.11719 -0.0781,0.23438 -0.0391,0.11718 -0.0391,0.3125 0,0.15625 0,0.42968 -1.17188,2.07032 -2.96875,3.47657 -1.75782,1.40625 -3.90625,2.5 -2.10938,1.05468 -4.41407,1.95312 -2.30468,0.85938 -4.49218,1.875 -0.9375,-0.23437 -1.44532,-0.78125 -0.46875,-0.54687 -0.74218,-1.25 -0.23438,-0.74219 -0.35157,-1.60156 -0.0781,-0.89844 -0.15625,-1.83594 0.11719,-0.42969 0.3125,-0.70312 0.23438,-0.3125 0.23438,-0.85938 0.3125,-1.01562 0.625,-1.99219 0.3125,-0.97656 0.39062,-1.99218 0.11719,-0.3125 0.42969,-0.42969 0.19531,-1.875 0,-3.78906 -0.15625,-1.95313 -0.625,-3.63282 0.0391,-0.39062 0.0781,-0.54687 0.0781,-0.19531 0,-0.27344 -0.0391,-0.3125 0.19531,-0.3125 0.27344,0 0.54687,0 0,-0.58594 -0.23437,-1.17187 -0.19531,-0.58594 -0.39063,-1.32813 0.27344,-0.58594 0.35157,-1.13281 0.0781,-0.58594 0.35156,-1.01563 2.10937,0.66407 4.02344,1.60157 1.95312,0.9375 3.82812,1.36718 1.40625,1.01563 2.89063,2.03125 1.48437,0.97657 2.69531,2.1875 1.21094,1.17188 2.03125,2.69532 0.82031,1.52343 0.9375,3.63281 z m -9.25781,2.14844 q 0.82031,-0.3125 1.60156,-0.66407 0.82031,-0.35156 1.48437,-0.78125 0.70313,-0.46875 1.25,-1.05468 0.54688,-0.58594 0.89844,-1.40625 -0.23437,-0.46875 -0.625,-0.82032 -0.39062,-0.39062 -0.78125,-0.70312 -0.39062,-0.35156 -0.78125,-0.70313 -0.35156,-0.35156 -0.58594,-0.85937 -0.50781,-0.0781 -0.89843,-0.27344 -0.39063,-0.23437 -0.78125,-0.42969 -0.35157,-0.23437 -0.78125,-0.42968 -0.39063,-0.19532 -0.9375,-0.23438 -0.85938,-0.42969 -1.5625,-0.625 -0.66407,-0.19531 -1.01563,-0.50781 -0.27344,0 -0.42969,0.11719 0.39063,1.48437 0.58594,2.8125 0.19531,1.28906 0.19531,2.61718 0.0391,1.28907 -0.11718,2.65625 -0.15625,1.36719 -0.42969,2.96875 0.39062,-0.0391 0.70312,-0.15625 0.35157,-0.15625 0.66407,-0.3125 0.35156,-0.15625 0.70312,-0.27343 0.39063,-0.15625 0.89844,-0.19532 0.11719,-0.23437 0.3125,-0.39062 0.23437,-0.15625 0.42969,-0.35156 z"
         id="path9311"
         style="fill:#000000;fill-opacity:1" />
      <path
         d="m 235.24316,149.66581 q 0.0391,0.27343 0,0.42968 0,0.11719 -0.0391,0.23438 0,0.11719 0,0.27344 0,0.11718 0.0781,0.39062 -0.82032,1.32813 -1.91407,1.83594 -1.05468,0.46875 -2.30468,0.70312 -1.25,0.19532 -2.57813,0.42969 -1.28906,0.23438 -2.57812,1.01563 -0.50782,-0.19532 -0.9375,0 -0.39063,0.19531 -1.17188,0.11718 -0.23437,0.23438 -0.58594,0.35157 -0.35156,0.0781 -0.70312,0.19531 0.15625,0.35156 0.11719,0.74219 0,0.35156 0.11718,0.58593 1.36719,0.11719 3.00782,-0.0391 1.67968,-0.15625 3.28125,-0.19531 0.0391,0.19531 -0.0391,0.27344 -0.0781,0.0391 -0.0391,0.19531 0.27344,0.19531 0.54688,0.50781 0.27343,0.27344 0.54687,0.54688 0.27344,0.27343 0.54688,0.46875 0.3125,0.15625 0.70312,0.11718 0.15625,0.3125 0.19531,0.70313 0.0781,0.35156 -0.0781,0.74219 -0.625,0.42968 -1.25,0.89843 -0.625,0.42969 -1.32813,0.78125 -0.66406,0.35157 -1.44531,0.58594 -0.74219,0.19531 -1.67969,0.15625 -0.19531,0 -0.3125,0 -0.0781,0 -0.23437,-0.11719 -0.3125,0.19532 -0.89844,0.11719 -0.54687,-0.0781 -0.85937,0.11719 -0.42969,-0.19531 -1.05469,-0.15625 -0.58594,0 -1.05469,-0.15625 -0.625,0.82031 -1.13281,1.75781 -0.50781,0.9375 -0.89844,1.99219 1.32813,0.19531 2.1875,0.15625 0.89844,-0.0391 1.67969,-0.11719 0.78125,-0.11719 1.60156,-0.19531 0.82031,-0.11719 2.07031,-0.0781 0.78125,-0.42968 1.83594,-0.54687 1.09375,-0.15625 1.99219,-0.46875 0.3125,0.11719 0.54687,0.42969 0.23438,0.27343 0.42969,0.54687 0.23438,0.23438 0.46875,0.42969 0.23438,0.19531 0.58594,0.15625 0.15625,0.15625 0.19531,0.39062 0.0781,0.19532 0.11719,0.39063 0.0391,0.19531 0.11719,0.35156 0.11718,0.11719 0.35156,0.0781 -0.58594,1.28906 -1.36719,1.99218 -0.74219,0.66407 -1.71875,1.01563 -0.97656,0.35156 -2.1875,0.54687 -1.17187,0.19532 -2.61719,0.46875 -0.35156,0.0781 -0.58593,-0.0391 -0.23438,-0.0781 -0.54688,-0.0781 -0.89844,0.19531 -2.14844,0.35156 -1.25,0.15625 -2.53906,0.11719 -1.28906,-0.0391 -2.46094,-0.35157 -1.17187,-0.27343 -1.91406,-1.01562 -0.3125,-0.27344 -0.42969,-0.625 -0.0781,-0.39063 -0.50781,-0.58594 -0.0391,-0.50781 -0.15625,-1.13281 -0.11719,-0.625 -0.23437,-1.28906 -0.11719,-0.70313 -0.19532,-1.36719 -0.0391,-0.66406 0.0781,-1.21094 0.11719,-0.58594 0.46875,-1.05469 0.39062,-0.46875 0.27344,-1.01562 0.19531,-0.0391 0.23437,-0.19531 0.0391,-0.19532 0.3125,-0.15625 0.23438,-0.70313 0.50781,-1.32813 0.27344,-0.625 0.54688,-1.21094 0.3125,-0.58593 0.58594,-1.17187 0.3125,-0.625 0.58593,-1.36719 -0.54687,-0.50781 -0.82031,-1.09375 -0.23437,-0.625 -0.35156,-1.21094 -0.11719,-0.625 -0.19531,-1.25 -0.0781,-0.66406 -0.27344,-1.32812 0.39062,-0.58594 0.9375,-0.9375 0.58594,-0.39063 1.25,-0.625 0.66406,-0.23438 1.44531,-0.39063 0.78125,-0.15625 1.64063,-0.35156 1.5625,-0.50781 2.77343,-0.78125 1.25,-0.27344 2.42188,-0.42969 1.21094,-0.19531 2.5,-0.35156 1.28906,-0.15625 2.92969,-0.46875 0.35156,0.35156 0.66406,0.35156 0.15625,-0.35156 0.35156,-0.19531 0.23438,0.11719 0.19531,-0.23437 0.39063,0.66406 0.97657,1.13281 0.625,0.42969 1.36718,0.74219 z"
         id="path9313"
         style="fill:#000000;fill-opacity:1" />
      <path
         d="m 240.2041,167.59549 q -0.42969,1.5625 -0.78125,2.38282 -0.3125,0.78125 -0.97656,1.64062 -0.50781,-0.0781 -0.70313,0.11719 -0.19531,0.19531 -0.42968,0.35156 -0.35157,0.0781 -0.50782,0 -0.15625,-0.0781 -0.27343,-0.19531 -0.11719,-0.0781 -0.3125,-0.19531 -0.15625,-0.0781 -0.50782,-0.0781 -0.0781,-0.3125 -0.19531,-0.58594 -0.0781,-0.27343 -0.50781,-0.19531 0.0781,-0.3125 0.0391,-0.50781 -0.0391,-0.23438 -0.11719,-0.39063 -0.0391,-0.19531 -0.0781,-0.35156 -0.0391,-0.19531 0.0391,-0.46875 -0.19531,0 -0.3125,-0.27344 -0.11719,-0.27343 -0.27344,-0.54687 0.11719,-0.70313 0.23438,-1.32813 0.11719,-0.625 0.27344,-1.17187 0.19531,-0.54688 0.3125,-1.09375 0.11718,-0.54688 -0.11719,-1.13281 0.15625,0.11718 0.23437,-0.0391 0.0781,-0.19531 0.11719,-0.46875 0.0391,-0.3125 0.0391,-0.58593 0,-0.3125 -0.0391,-0.50782 0.39063,-1.01562 0.625,-2.07031 0.27344,-1.09375 0.46875,-2.14844 0.23438,-1.05468 0.46875,-2.07031 0.23438,-1.01562 0.625,-1.875 0.42969,-0.0781 0.9375,0.11719 0.54688,0.15625 0.66406,0.42969 1.01563,-0.78125 1.79688,-1.875 0.78125,-1.13282 1.60156,-2.1875 0.82031,-1.05469 1.79688,-1.875 1.01562,-0.82032 2.53906,-0.97657 0.78125,0.58594 1.71875,1.21094 0.97656,0.58594 1.60156,1.5625 0.3125,0.15625 0.50781,0.35156 0.23438,0.15625 0.54688,0.35157 v 0.46875 q 0.46875,0.42968 0.74219,1.01562 0.3125,0.54688 0.54687,1.21094 0.23438,0.625 0.46875,1.28906 0.23438,0.625 0.54688,1.21094 -0.0781,0.19531 -0.0781,0.35156 0,0.11719 0.0391,0.27344 0.0781,0.15625 0.11719,0.3125 0.0391,0.15625 0,0.42969 -0.11719,1.71875 -1.13281,2.77343 -0.97656,1.05469 -2.38281,1.75782 -1.40625,0.66406 -3.00782,1.13281 -1.60156,0.46875 -2.89062,1.01562 0,0.15625 0.11719,0.15625 0.15625,0 0.11718,0.19532 0.9375,0.58593 1.48438,0.9375 0.54687,0.35156 1.01562,0.58593 0.50782,0.23438 1.05469,0.42969 0.58594,0.15625 1.60156,0.39063 1.01563,0.23437 1.5625,0.39062 0.58594,0.11719 1.05469,0.23438 0.46875,0.0781 0.9375,0.15625 0.50781,0.0391 1.40625,0.11718 0.35156,0.35157 0.58594,0.85938 0.27344,0.46875 0.35156,0.97656 0.0781,0.46875 0.0391,0.9375 -0.0391,0.42969 -0.27343,0.70313 0.0391,0.11718 0.15625,0.11718 0.15625,-0.0391 0.3125,0 -0.23438,0.15625 -0.39063,0.39063 -0.15625,0.23437 -0.3125,0.46875 -0.15625,0.23437 -0.35156,0.39062 -0.19531,0.19532 -0.54688,0.23438 -1.21093,0.46875 -3.04687,0.0391 -1.83594,-0.39062 -4.64844,-1.48437 -1.40625,-0.54688 -2.30469,-0.9375 -0.85937,-0.42969 -1.52343,-0.82032 -0.625,-0.42968 -1.17188,-0.89843 -0.50781,-0.46875 -1.25,-1.13282 z m 5.58594,-13.39843 q -0.42969,0.625 -0.97656,1.13281 -0.50782,0.50781 -1.01563,1.05469 -0.46875,0.50781 -0.85937,1.17187 -0.39063,0.625 -0.54688,1.48438 1.36719,-0.15625 2.85156,-0.74219 1.48438,-0.625 2.8125,-1.17188 -0.15625,-1.21093 -0.85937,-1.95312 -0.66406,-0.74219 -1.40625,-0.97656 z"
         id="path9315"
         style="fill:#000000;fill-opacity:1" />
    </g>
  </g>
</svg>
