<?xml version="1.0" encoding="UTF-8" standalone="no"?>
<!-- Created with Inkscape (http://www.inkscape.org/) -->

<svg
   width="139.37585mm"
   height="127.06968mm"
   viewBox="0 0 139.37585 127.06968"
   version="1.1"
   id="svg2064"
   inkscape:version="1.1.1 (c3084ef, 2021-09-22)"
   sodipodi:docname="wing.svg"
   xmlns:inkscape="http://www.inkscape.org/namespaces/inkscape"
   xmlns:sodipodi="http://sodipodi.sourceforge.net/DTD/sodipodi-0.dtd"
   xmlns="http://www.w3.org/2000/svg"
   xmlns:svg="http://www.w3.org/2000/svg">
  <sodipodi:namedview
     id="namedview2066"
     pagecolor="#505050"
     bordercolor="#eeeeee"
     borderopacity="1"
     inkscape:pageshadow="0"
     inkscape:pageopacity="0"
     inkscape:pagecheckerboard="0"
     inkscape:document-units="mm"
     showgrid="false"
     fit-margin-top="5"
     fit-margin-left="5"
     fit-margin-right="5"
     fit-margin-bottom="5"
     inkscape:zoom="0.81393987"
     inkscape:cx="261.69009"
     inkscape:cy="-55.286639"
     inkscape:window-width="1165"
     inkscape:window-height="930"
     inkscape:window-x="479"
     inkscape:window-y="48"
     inkscape:window-maximized="0"
     inkscape:current-layer="layer1" />
  <defs
     id="defs2061" />
  <g
     inkscape:label="Layer 1"
     inkscape:groupmode="layer"
     id="layer1"
     transform="translate(-70.023694,-112.53388)">
    <path
       style="color:#000000;fill:#ffffff;stroke-width:2.64583;-inkscape-stroke:none"
       d="m 184.04085,233.80831 c 0,0 23.66769,-31.46388 18.17525,-47.50347 -11.94948,-34.89609 -124.903632,-67.09765 -124.903632,-67.09765 -2.50309,13.97182 -1.47656,46.71824 20.44106,44.30165 12.026262,-1.32599 11.893732,-7.87509 -1.23922,-7.84841 -18.67542,0.0379 -2.71774,37.69395 20.393482,31.22858 10.64711,-2.97853 7.91507,-10.56508 -4.56457,-5.34668 -12.479632,5.2184 -3.09603,33.16819 17.79152,22.52467 5.25415,-2.67731 1.24445,-8.85945 -5.36995,-6.1961 -20.93017,8.42773 4.12139,27.67594 16.72948,27.67594 14.29471,0 28.86912,-23.22068 40.06814,-15.28373 6.43871,4.56322 2.47844,23.5452 2.47844,23.5452 z"
       id="path5268" />
    <path
       style="color:#000000;fill:#333333;-inkscape-stroke:none"
       d="m 76.26863,117.5332 1.40625,0.40235 c 0,0 28.29785,8.0649 58.11719,20.51367 14.90967,6.22438 30.20561,13.5428 42.58398,21.53906 12.37838,7.99627 21.9177,16.61932 25.0918,25.88867 3.02078,8.8216 -1.82384,20.83574 -7.11133,30.81446 -5.28748,9.97871 -11.25781,17.91211 -11.25781,17.91211 l -2.35351,-1.06446 c 0,0 0.96796,-4.65857 1.14843,-9.83789 0.0902,-2.58966 -0.0235,-5.3003 -0.51953,-7.54883 -0.49606,-2.24853 -1.37171,-3.95692 -2.57617,-4.81054 -2.44103,-1.73 -4.87495,-1.76266 -7.79102,-0.78516 -2.91606,0.9775 -6.16685,3.06448 -9.55664,5.45313 -6.77957,4.77729 -14.0914,10.85937 -21.95507,10.85937 -6.97725,0 -16.42094,-4.93423 -21.92969,-11.12109 -2.48249,-2.78807 -4.11092,-5.92452 -4.08008,-9.12305 -3.52509,-1.44626 -6.23555,-4.10838 -7.92383,-7.24414 -1.833,-3.40458 -2.55273,-7.31782 -1.94531,-10.8457 0.0313,-0.18159 0.11149,-0.34771 0.15039,-0.52735 -1.78656,-0.52902 -3.51423,-1.19648 -5.0918,-2.125 -4.70723,-2.77056 -8.42707,-7.0472 -10.80468,-11.55273 -2.06868,-3.9201 -3.07342,-7.98661 -2.7461,-11.5586 -1.10854,-0.63475 -2.14406,-1.36822 -3.06836,-2.23632 -3.39241,-3.18619 -5.57203,-7.71198 -6.95508,-12.67579 -2.76608,-9.9276 -2.37856,-21.69137 -1.08984,-28.88476 z m 2.16211,3.40821 c -1.02575,6.89442 -1.21604,17.46847 1.21875,26.20703 1.3004,4.6672 3.33063,8.74827 6.2168,11.45898 0.57621,0.54119 1.21313,0.9895 1.85937,1.42383 0.52564,-1.46905 1.29644,-2.82212 2.54102,-3.79492 1.5731,-1.22957 3.68724,-1.89325 6.24414,-1.89844 3.39319,-0.007 5.99683,0.39614 7.89649,1.11328 1.89965,0.71714 3.31997,1.83606 3.47851,3.5 0.0793,0.83198 -0.22974,1.65085 -0.73242,2.29688 -0.50268,0.64603 -1.19012,1.17279 -2.04102,1.63476 -1.70179,0.92394 -4.0901,1.59688 -7.21484,1.94141 -3.08295,0.33992 -5.81319,-0.0289 -8.22852,-0.89258 -7.5e-4,2.70005 0.85901,5.973 2.54297,9.16406 2.16628,4.10504 5.60345,8.03312 9.80469,10.50586 1.43627,0.84535 2.98338,1.44605 4.57813,1.91406 1.034,-2.24582 2.74296,-4.14993 5.23828,-5.19335 3.24101,-1.35524 5.90062,-1.91399 8.00195,-1.88672 2.10132,0.0273 3.80652,0.62319 4.61523,2.05664 0.40436,0.71672 0.47606,1.59766 0.25586,2.3789 -0.2202,0.78125 -0.68667,1.48401 -1.32812,2.12696 -1.28291,1.28589 -3.29706,2.37622 -6.11328,3.16406 -3.10174,0.86771 -6.10143,0.97501 -8.91992,0.51953 -0.0229,0.11259 -0.0994,0.18819 -0.11915,0.30273 -0.49031,2.84777 0.10213,6.2359 1.66602,9.14063 1.35365,2.51424 3.4385,4.59583 6.07813,5.82812 1.03373,-2.88635 3.68066,-5.44826 8.30078,-7.30859 3.72209,-1.49874 7.07608,-0.59798 8.68359,1.52344 0.80375,1.06071 1.13889,2.46047 0.76172,3.78906 -0.37717,1.32859 -1.42278,2.49533 -2.98047,3.28906 -4.70395,2.39696 -8.95745,2.88818 -12.60352,2.15625 0.23859,2.07223 1.42189,4.35706 3.40821,6.58789 4.9365,5.54417 14.32425,10.23438 19.95508,10.23438 6.43102,0 13.55058,-5.52815 20.43164,-10.37695 3.44052,-2.4244 6.82716,-4.65473 10.24023,-5.79883 3.41307,-1.14411 7.00168,-1.10371 10.16016,1.13476 2.01489,1.42799 3.05858,3.80445 3.63086,6.39844 0.57227,2.59399 0.67507,5.4847 0.58007,8.21094 -0.0631,1.81054 -0.26804,3.25377 -0.44531,4.77344 2.18146,-3.20932 4.99988,-7.59339 7.92578,-13.11524 5.17324,-9.7631 9.41697,-21.49882 6.94532,-28.7168 -2.80063,-8.17867 -11.86214,-16.6674 -24.02344,-24.52343 -12.1613,-7.85604 -27.34349,-15.13231 -42.16602,-21.32032 C 106.36257,129.02941 80.6332,121.57595 78.43074,120.94141 Z m 18.08594,36.04101 c -2.11195,0.004 -3.58256,0.52615 -4.62109,1.33789 -0.90498,0.70736 -1.47604,1.71302 -1.83985,2.92774 2.12952,0.86972 4.5773,1.27337 7.55274,0.94531 2.88838,-0.31847 4.9949,-0.9606 6.24023,-1.63672 0.62267,-0.33806 1.02228,-0.6836 1.2168,-0.93359 0.19452,-0.25 0.19201,-0.35205 0.18555,-0.41993 -0.0129,-0.13574 -0.33629,-0.73259 -1.7793,-1.27734 -1.44301,-0.54475 -3.7818,-0.9498 -6.95508,-0.94336 z m 23.28516,24.09766 c -1.58811,-0.0206 -3.95042,0.42963 -6.94922,1.68359 -1.66041,0.69431 -2.70883,1.92743 -3.49219,3.36524 2.27877,0.28995 4.67417,0.19052 7.19141,-0.51368 2.50732,-0.70142 4.14378,-1.6751 4.95312,-2.48632 0.40467,-0.40561 0.59364,-0.7594 0.6543,-0.97461 0.0607,-0.21522 0.038,-0.27168 -0.0137,-0.36328 -0.10336,-0.1832 -0.75565,-0.69033 -2.34375,-0.71094 z m 7.44726,17.49414 c -0.60176,0.0681 -1.26716,0.23228 -1.99023,0.52344 -4.1954,1.68931 -6.10467,3.66121 -6.82031,5.68359 3.04727,0.67878 6.70812,0.34317 11.0957,-1.89258 1.06939,-0.54492 1.49273,-1.15397 1.63476,-1.6543 0.14204,-0.50032 0.0464,-0.98217 -0.32226,-1.46875 -0.55305,-0.72985 -1.79237,-1.39563 -3.59766,-1.1914 z"
       id="path5270" />
  </g>
</svg>
